<?xml version="1.0" encoding="UTF-8"?>
<svg id="_レイヤー_1" data-name="レイヤー 1" xmlns="http://www.w3.org/2000/svg" viewBox="0 0 113.16 113.09">
  <path d="M40.12,1.49c.47.09.66-.33.96-.6l-.24-.6.84-.24c.17.17,1.1.51,1.2.48,1.81-.5,2.82-.1,4.56-.48l.48.48c.81-.62,2.31.14,3.12-.48l.24.24v.48c.2-.36.49-.17.72-.24.24-.07.38-.71,1.2-.48.21.06.39.66.84.48V.05c.34.04.76-.06,1.08,0,.09.02.14.21.24.24.24.06.52-.12.72.24l.12-.48c.37.24.88.34,1.32.24.95-.21,2.14.02,3.12-.24l.48.48.48-.48c1.76.41,4.36-.1,6.48.48.11.03,1.27-.35,1.92-.24,1.04.17,2.21-.69,3.12.24,1.28-.8,3.11.04,4.8-.24,1.17-.19,3.13-.24,4.56-.24,1.82,0,3.76.47,5.76,0,.66-.15,2.2.39,3.12.24.79-.13,1.15.13,1.92.24.65.1,1.31.08,1.68-.48h.24c.56.31.92.85,1.56.72v-.36c0-.21.47-.16.6-.12.33.09.42.64.36.96.66.12.49-.2.48-.72.35-.03.75.05,1.08,0,.68-.11,1.9-.65,2.64-.48,1.08.24,2.82.03,3.6.24.32.09.37-.21.48-.24.25-.07.62.41,1.08.24.04.42-.06.92,0,1.32.05.3.35,1.26.48,1.68.04.15.41.38.24.84h.48v.48c.76.03,1.26.65,1.8,1.2l2.64.48.36-.24v31.56c-.05.82-.05,2.3,0,3.12v17.28c-.89.55-.57.99-.72,1.68-.02.09-.21.14-.24.24-.09.3.36.45.24.84l.72-.24v21.24c-.29.36.16,1.2,0,1.92-.27,1.2.54,3.25-.48,4.32v.24c.1.16.45.36.48.48.11.4.09,4.27,0,4.8-.03.16-.46.17,0,.48v13.08c-.1.1-1.43-.08-1.8,0-.15.03-.32.55-.72,0-.31.52-.6.38-.96.48-.04.01-.66.43-.72.48-.21.15-.69.63-.84.84-.04.05.04.18,0,.24-.11.16-.45.37-.48.48-.04.15.05.34,0,.48-.07.23-.46,1.03-.48,1.2-.08.55.06,1.23,0,1.8h-10.68c-.24-.29-.24-.29-.48,0h-10.8l-.12-.48-.24.48h-46.32c.13-.39-.21-.49-.24-.6-.09-.37.17-.77-.36-1.08l.12.84-.72.36v.48H6.52l-.48-.84c.39-.7-.34-1.29-.24-2.16-.69-.57-1.05-1.54-1.8-2.04-.08-.05-1.36-.7-1.44-.72-.21-.06-.88-.23-.96-.24-.4-.06-.9.04-1.32,0l.24-1.08-.48-.72c.38-.4.38-1.52,0-1.92l.48-.48-.48-.48c1.13-.72-.1-1.3,0-1.68.36-.51.56-1.08.24-1.68l.48-.48-.72-.72.48-.12c.13-.39-.21-.48-.24-.6-.04-.15.41-1.31-.24-1.68l.48-.72c-.18-.75-.08-1.65-.24-2.64-.22-1.31.21-3.07,0-4.32-.26-1.51.09-2.44-.24-3.84-.17-.73.45-1.16.48-1.8-.94.2-.38-.98.24-.6.09.06.15.18.24.24.38.24.64.11.48-.24-.23-.51-.98-.23-1.2-.72l.24-.24-.48-.48c-.09-.32.33-.4.24-.72-.16-.56-.14-.82,0-1.44.11-.49.02-1.15-.24-1.56h.72l-.48-.84.24-.48-.48-.48c.49-.45-.14-1.56,0-2.16.23-1-.03-1.89.24-2.88.02-.09-.08-.28,0-.72.04-.25-.03-.57,0-.84l1.44-.36-.6-1.08c-.33.42-.77.31-1.08-.12.83-.48.19-1.36.72-1.92l-.48-.12.24-.6-.48-.72.48-2.4-.48-.96.96-.72c-.13-.21-.68-.57-.72-.72-.12-.45.23-1.13-.24-1.44v-.24c.56-.48.86-.78.72-1.56H.04c-.17-.47.18-.67.24-.84.11-.31-.05-.67.48-.96l-.48-.48c.32-.6-.16-1.68,0-2.64.11-.64.23-1.07,0-1.92-.16-.58-.12-4.11,0-4.8s-.24-1.14-.24-1.2c0-.07.47-.83.24-1.32h.48c.16-.47-.18-.67-.24-.84-.13-.36-.56-1.41-.48-1.68.34-1.12-.23-2.13.24-3.6.06-.19.55-.32,0-.72l.96-1.2L.04,31.61l.48-.48-.48-.72c.41-.22.15-.64.24-.96.05-.18.79-.68.96-.96.04-.06-.03-.36.24-.48l-.24-.84h-.72c-.03-.65-.65-1.07-.48-1.8.13-.55.32-1,0-1.68l.48-.72c-.32-.69-.44-2.26-.24-2.88.29-.9-.24-1.53-.24-2.16,0-.08.22-.15.24-.24.11-.65-.25-1.23.48-1.68l-.72-.12c-.07-.06.37-.42.24-.84-.3-1.01.3-2.43-.24-3.6l.48-.48c-.39-.58-.32-1.69-.24-2.16.07-.39.07-.98-.24-1.2.43-.16.44-.8.48-.84.04-.04.25.06.36,0,.17-.09.36-.44.48-.48.48-.14.8-.17,1.2,0,.82-.7,1.84-1.35,2.76-1.68v-.72l.72-.36c-.5-.42-.21-.84.24-1.2-.56-.38,0-.65,0-.72,0-.08-.21-.14-.24-.24-.15-.54.54-1.24,1.08-1.08.24.07.26.48.84,0l.12.48c.63-.88,1.91-.32,2.88-.48.63-.11,1.62-.07,2.4.24l.72-.48c.86.49,1.65-.21,2.4.48l.72-.48c1.03.38,1.92.06,3.12.24.93.14,1.25.18,2.16,0,.85-.17,3.58-.12,4.32,0,1.55.26,2.94-.18,4.32-.24l.48.48c1.77-.35,4.11-.44,6,0,.62.15,1.09-.4,1.68-.24.15.04.97.88.84,1.2ZM96.28,1.49l-.48-.48v.48h.48ZM23.44,1.25c-.16,0-.16.24,0,.24s.16-.24,0-.24ZM29.56,1.97l-.48-.48v.48h.48ZM52,1.49c-.16,0-.16.24,0,.24s.16-.24,0-.24ZM90.52,1.97h-.48l.24.6-.36.36c-1.52-.13-3.32.18-4.8,0-.24-.03-1.01-.62-1.44,0h-8.76v-.48l-.84.48h-11.64v-.48c-.45-.18-.63.42-.84.48-.45.12-5.39.1-6,0-1.78-.3-4.92.53-6.96-.48l-.72.48h-26.88c-.96.11-2.61-.33-3.6,0h-8.76c.17.46-.19.68-.24.84-.05.15.05.34,0,.48-.45,1.2-2.12,3.08-3.24,3.72-.61.35-1.14.32-1.68.48-.12.04-.21.37-.6.24v16.92c-.61.41-.03,1.01,0,1.2.13.85.17,7.56,0,8.16-.1.35-1.09.65,0,1.44v5.16l-.24-.84-.96-.6c-.04.48.37.5,0,.96.91-.08.53.91,1.2,1.32v8.16l-.36.36-.6-.24v.72h.96c-.08.7.12,1.61,0,2.28-.02.09-.21.14-.24.24-.14.47.23.65.24.72.29,1.6-.21,3.95,0,5.64l-.96-.12-.24-.36-.48.36.24.6,1.08-.24.36.36v16.32c-.55.4-.03.57,0,.72.19.86.05,2.32-.72,2.88l.72.48v16.68h-.72l.24.36c-.26.37-.52.41-.96.36-.16.68.26.34.6.72l.84-.48v5.16c0,.42.87.3,1.08.36.7.19,2.94,1.82,3,2.64l.36-.24c.32.16.29.48.36.6.19.34.6.88.72,1.2.1.27.14.93.24,1.2.05.14.37.2.24.6.27-.04.6.06.84,0,.68-.16.85-.1,1.44,0,1.58.26,3.71-.52,5.04.48.1,0,.38-.66.96-.48.17.05.82.45.96.48.95.22,2.6-1.43,3.36-.24l.48-.48c.57.51,1.63.11,2.4.24.09.02.16.24.24.24.09,0,.6-.48,1.2,0l1.08-.48v.48l1.56-.48c.84,1.08,2.68-.39,3.84.48l.96-.48c.91.31,1.72.04,2.88.24s2.5-.55,3.6.24l.96-.48c1.06.67,2.29-.5,3.36.48l.48-.48c.26.34.46.34.72,0l.48.48c.32-.34.46-.11.96-.24.58-.16.66-.05.96,0,.4.07.9-.05,1.32,0l.12,1.2.84-.6-.24-.48.36-.36c.08,0,.15.22.24.24.55.09,2.57.09,3.12,0,.79-.13,1.82-.23,2.88,0,.44.09.79.72,1.68.48.4-.11.3-.73,1.2-.48.32.09.4-.33.72-.24.69.19,1.36.18,1.92.48l.48-.48c.38.43.92-.2,1.44.48.33.09.58-.57.96,0l.48-.48c.15.17.24.31.48.24,1.83-.51,3.94.3,5.76,0,.92-.15,2.2.15,3.12,0,.09-.02.16-.24.24-.24s.15.22.24.24c.23.04.53-.05.72,0s.72.69.6.96h.12l.12-.48c.68,0,.96-.94,1.56-.24l.72-.48c.08,0,.15.22.24.24.49.08,2.66-.1,2.76,0v.48c.86-.11,1,1.93,1.92.84v-.6h-.96c-.09-.47.33-.66.6-.96.29.33,1.21.32,1.68.24.71-.12,1.73.15,2.64,0,1-.17,2.03-.05,3.12.24l.72-.48c1.45.48,3.5-.17,5.28.48l.72-.48c.69.54,1.12-.02,1.92.24.99.32,1.98-.27,3.12,0,.59.14.8-.2.96-.24.21-.05.52.06.72,0,.06-.02.82-.78.84-.84.1-.37-.07-1.01,0-1.44l1.2-.6c.12-.1-.24-.3-.24-.36,0-.3,2.34-1.86,2.76-2.04.13-.06.35.06.48,0,.33-.14.68-.57,1.08-.48-.05-.42.07-.92,0-1.32-.11-.69,0-.91.24-1.68.09-.29-.42-1.64-.24-2.64.07-.37-.09-1.71,0-1.8h.48l-.72-1.08c-.13-.6.23-.86.24-.96.1-.7.13-2.14,0-2.64-.03-.1-.22-.15-.24-.24-.13-.55.38-1.79.24-2.64-.18-1.08-.4-1.78.24-2.64-.57-2.24-.43-4.52,0-6.72l-.48-.72c.54-1.16-.46-2.11.48-3.12-.59-1.29.08-2.62-.24-3.84-.13-.48-.04-.74-.24-1.44-.11-.37.58-1.88.24-2.16l.72-.96-.72-.36c.07-.48-.1-1.13,0-1.56.24-1.09-.6-2.22.24-3.36-.81-.77-.1-2.27-.24-2.88-.33-1.45-.07-4.04.24-5.76.09-.5-.16-1.78-.24-2.16-.22-1,.68-2.55-.24-3.6.77-.54.54-1.26,0-1.92l.48-.96-.48-.48c.56-.76.44-1.16.24-1.92-.42-1.58.79-3.53-.24-5.04.17-1.89.38-4.02,0-6.24,1.08-1.37-.75-2.81.48-4.32l-.48-.72.84-1.56.96.72.6-.6-.48-1.08c-.36-.13-.55.24-.6.24-.08,0-.16-.24-.24-.24s-.63.63-1.08-.12c.34-.21.2-.44.24-.72.11-.73.22-1.55-.24-2.16l.48-.72c-.28-.67-.48-1.17.24-1.68l-.48-.12c-.05-.42.07-.93,0-1.32-.02-.09-.21-.14-.24-.24-.04-.12.18-1.02.24-1.2.05-.14.37-.2.24-.6h-.48c.3-.55.35-1.63.24-2.28-.02-.09-.24-.16-.24-.24l.48-.72c-.59-.74-.17-1.62-.48-2.4l.48-.6c-.47.17-.68-.19-.84-.24-.67-.22-1.17-.21-1.68-.96-.51.25-.56.07-1.08,0v-.48c-1.34-.23-1.54-1.9-2.4-2.76-.16-.23.24-.4.24-.48,0-.05-.42-.41-.24-.84l-.6-.24h-10.08l-.6-.48v.48c-.54-.08-1.3.11-1.8,0-.09-.02-.14-.2-.24-.24-.21-.09-.5-.16-.72-.24-.24-.08-.11-.3-.12-.48l.48-.12-.72-.36.24.48ZM100.84,2.21c-.08-.28-.34-.36-.24-.72h-.24v.72h.48ZM62.68,1.73h-.48v.24h.48v-.24ZM77.44,1.97c-.16,0-.16.24,0,.24s.16-.24,0-.24ZM17.32,2.69v-.48h-.24v.48h.24ZM20.8,2.21c-.16,0-.16.24,0,.24s.16-.24,0-.24ZM76.96,2.21c-.16,0-.16.24,0,.24s.16-.24,0-.24ZM107.32,5.33h-.48l.36.48h.12v-.48ZM106.72,5.81c-.16,0-.16.24,0,.24s.16-.24,0-.24ZM1.48,21.17h-.48v.24h.48v-.24ZM2.32,32.45c-.16,0-.16.24,0,.24s.16-.24,0-.24ZM112.48,37.97c-.16,0-.16.24,0,.24s.16-.24,0-.24ZM111.64,52.61v-.48h-.24v.48h.24ZM112.48,54.53c-.16,0-.16.24,0,.24s.16-.24,0-.24ZM.88,59.57c-.16,0-.16.24,0,.24s.16-.24,0-.24ZM112.36,66.05h-1.2l.48,1.44.6-.72.12-.72ZM112.36,72.77l-.24-.96-.48.36v.24l.72.36ZM1.84,81.89c-.16,0-.16.24,0,.24s.16-.24,0-.24ZM111.88,91.73c-.26-.26-.74.22-.48.48s.74-.22.48-.48ZM1.72,94.37v-.6l-.48-.36.24.96h.24ZM111.4,98.69v-.72h-.24v.72h.24ZM.88,99.17c-.16,0-.16.24,0,.24s.16-.24,0-.24ZM1.48,102.05h-.48l.36.48h.12v-.48ZM7.6,109.01c-.16,0-.16.24,0,.24s.16-.24,0-.24ZM20.92,112.13l-.24-1.44-.48.36c-.08.62.04,1.13.72,1.08ZM92.44,110.93h-.48v.72l.6.24.12-.12-.24-.84ZM46.6,112.13c.95,0,.95-.95,0-.96v.96ZM68.2,111.89v-.48h-.24v.48h.24ZM69.88,111.41c-.26-.26-.74.22-.48.48s.74-.22.48-.48ZM32.68,111.89l-1.2-.24v1.2l.24-.48c.5-.04,1.12.28.96-.48ZM31,111.89c-.26-.26-.74.22-.48.48s.74-.22.48-.48ZM58.84,111.89h-.48v.24h.48v-.24ZM79.84,111.89c-.16,0-.16.24,0,.24s.16-.24,0-.24ZM76.24,112.13c-.16,0-.16.24,0,.24s.16-.24,0-.24ZM60.4,112.37c-.16,0-.16.24,0,.24s.16-.24,0-.24Z"/>
  <polygon points="113.08 59.09 112.6 59.09 112.6 58.97 113.08 58.61 113.08 59.09"/>
  <path d="M102.76,6.05s-.06.25,0,.36c.35.64,1.18,1.29,1.44,1.92s.59.47,1.08.84c.55.42.41.66.96.96s.68,1.1,1.08,1.56v14.64l-.72.36.72,1.32v49.2c-.29.24-.29.24,0,.48v11.4h-.48v.48l-.96-.24.48-1.08c-.06-1.15-.52-3.55-.24-4.8.59-2.64-.62-7.43.24-10.56.09-.33-.56-1.8.24-2.4-.4-.13-.75-1.81-.72-1.92.38-1.39.13-3.62.48-5.04-.88-.93.03-2.81-.24-4.32-.14-.78-.12-1.47,0-2.16.15-.93.13-1.97,0-2.64-.16-.81-.23-2.73.48-3.36v-.24c-.68-.83-.62-1.83-.48-2.64.16-.9-.12-2.16,0-3.12l.72-.36c.08-.42-.24-.79-.72-.72.2-.48-.29-1.12-.24-1.32.51-1.85-.34-3.09.48-4.56l-.48-.96.48-.72c-.06-1.02-.21-2.4,0-3.6-.58-1.57-.47-3.72,0-5.52l-.48-.72c.47-1.52-.03-2.93.24-4.56.11-.66-.27-2.04-.24-2.16.16-.58.3-3.61.24-3.84-.2-.74-.11-2.14-.24-3.12-.06-.41.04-.89,0-1.32-.37,0-.99-.28-1.2-.6-.35-.55-.89-1.08-1.32-1.32-.26-.15-.42-.43-.36-.72h-.72c-.12-.1.24-.3.24-.36,0-.1-1.14-1.07-1.32-1.32h-21.36c-.24-.29-.24-.29-.48,0h-10.44v-.48h-.48v.48h-10.8l.84-1.2c.74-.09,1.7.12,2.4,0,2.01-.36,4.42.62,6.48-.24h.24c.57.84.83.31,1.2.24.93-.17,2.39-.16,3.12,0,.85.19,2.69-.37,3.12-.24,1.18.36,2.85.03,4.08.24.21.04,3.63.05,3.84,0,1.14-.26,2.08.56,3.12-.24.61.86,2.86-.15,3.36,0,.79.24,4.85.35,6,0,.29-.09,3.08.37,3.84.24.63-.1,1.18-.04,1.92-.24.32-.09.37.21.48.24.31.09.42-.24.48-.24.08,0,.14.2.24.24.14.05.32-.04.36,0Z"/>
  <path d="M7.96,10.85v.48l-.72.36v24c-.46.31-.03.32,0,.48.09.54-.06,1.23,0,1.8h-.48v.72h.48v13.8c.03,4.62-.05,10.49,0,15.12v8.04h-.48c-.18.45.42.63.48.84.14.52.12,6.96,0,7.68-.02.09-.24.16-.24.24s.22.15.24.24c.26,1.57-.19,3.76,0,5.4l-.48-.24v.96h.48c-.34,2.94.46,6.92,0,9.72-.02.09-.23.16-.24.24,0,.04.43.42.24.84l-1.44-.24c.19-.38.44-.52,0-.84l.48-.48-.48-.48.48-.48c-.97-.53-.17-1.42-.24-1.68-.19-.68-.1-2.02,0-2.64.28-1.67-.65-3.28.24-4.56-.51-1.82-.17-3.36-.48-5.04-.08-.46.19-3.54.24-3.84.27-1.61-.7-2.9.24-4.32-.72-.5-.67-1.3.24-1.32v-.24h-.48l.48-.96h-.48l-.24-.6c.26-.68.37-1.84.24-2.64-.15-.92.26-1.94,0-3.12-.2-.91.18-2.3-.24-3.12l.48-.72-.24-.72.48-.72c-.28-.13-.72-1.13-.72-1.2,0-.08.22-.15.24-.24.11-.63-.24-.91-.24-.96s.44-.52.24-.96l.72-.12-.48-.24c-.06-.61-.03-.96.48-1.32-.29-.2-.33-.68-.48-.96-.3-.56-.98-.66,0-1.44-.33-.29-.32-1.21-.24-1.68.19-1.15.16-2.16-.24-3.6-.06-.21.2-.22,0-.96-.07-.24.64-1.03,0-1.44l.96-.96-.96-.36.48-1.32-.48-.96.48-.72c-.2-.5-.42-1.64-.48-2.16-.08-.75-.17-1.71.48-2.16-.25-.53-.4-1.76.24-2.16v-.24c-1.05-2.76-.22-5.26-.72-7.68l.48-.72c-.22-.47-.18-.75.24-1.2l-.72-.72c.56-.38,0-.65,0-.72,0-.04.38-.24.24-.72-.27-.93.16-1.97,0-2.88-.27-1.58-.26-5.39.24-7.2.09-.32-.22-.38-.24-.48-.21-.92.15-2.47,0-3.48.73.09,1.04-1.19,1.8-.96.13.04.21.37.6.24-.13-.39.2-.48.24-.6.1-.33-.04-1.13.6-1.32.45-.13,1.19.48,1.08.84-.42.27-1.5,1.71-1.8,1.8-.16.05-.41-.03-.6,0Z"/>
  <path d="M8.44,102.05s.21.78.24.96c1.61.07,1.89,1.29,2.64,2.28.45.6.81.51,1.32.84l-.12.72.24-.48c.46.17.7-.2.84-.24.32-.09.4.33.72.24.1-.03.15-.22.24-.24,1.55-.32,2.95.26,4.56-.24l.48.48c1.06-.71,2.48.32,3.36-.48l.72.48.72-.48c.32.37,1.12.37,1.44,0l.72.48.72-.48,1.2.48.72-.48c1.13.38,3.23-.06,4.32.24.32.09.37-.21.48-.24.47-.14.93.23.84.72h.48v.48h.48c-.08-.91.91-.53,1.32-1.2l.96.72v-.48l.24-.24c.42.51.96.15,1.44,0l.6.24v.48c.5.09.72-.41,1.08-.72.65.36.6.11.96,0,.48-.14,2.4.81,2.88.24l.48.48c.43.09,1.06-.68,1.2-.72.54-.15,1.15.38,1.92.24.1-.02.21-.37.6-.24v.48c.4.13.46-.19.6-.24.29-.1,1.16-.31,1.44-.24.1.02.15.23.24.24.56.08,1.18-.23,1.56.36l-.24.84c-1.07-.19-3.03.26-3.96,0-.12-.03-.32-.38-.48-.48l-.48.48c-.56-.32-.57-.02-.72,0-.35.06-2.12.08-2.4,0-.12-.03-.32-.38-.48-.48l.12.48H14.8l-.48-.48-1.08.48v-.48c-.64.39-1.27.62-2.04.48-.08-.01-.14-.2-.24-.24-.13-.05-.32.04-.36,0-.04-.04.06-.25,0-.36-.13-.24-.59-.48-.72-.72-.1-.17-1.21-1.61-1.56-1.8-.55-.3-.68-.93-1.56-.96v-.48h-.48l-.24-.6.36-.36.72.24.48-.48c.16.43.8.44.84.48Z"/>
  <path d="M15.4,6.05l.48.72-.24-.96c.09-.1,1.48.64,1.8,0l.48.48.48-.48.72.48.72-.48,1.2.48.72-.48c.82.59,1.94.04,2.64.48l.48-.48.48.48.72-.48c.64.57,2.56-.17,3.12,0,1.38.42,2.1.31,3.36.48l.48-.48.96.48.48-.48c.7.42,1.23,0,2.16.24.76.2,1.63.33,2.64,0,.55-.18,1.64-.09,2.16,0,1.25.21,2.59-.47,3.6-.24,1.12.25,2.37.4,3.84.24.09,0,.15-.23.24-.24.98-.11,1.83-.13,2.4.72l.48-.48c.29.5,1.9-.31,2.16-.24.31.09,2.06.48,2.4.48.05,0,.24-.37.6-.24l.24,1.2H23.56v-.48l-1.08.48h-10.8l-.72.96-.6-.6c.53-.45.37-1.85,1.32-1.56.12.04.22.37.48.24l.72-.48c.24-.07,1.03.64,1.44,0l.36.36.72-.12ZM16.24,6.77c-.16,0-.16.24,0,.24s.16-.24,0-.24Z"/>
  <path d="M60.28,105.89l.12.48.48-.48.6.24v.48h.36l.12-.48.24.48h.48v-.48c.36.13.55-.24.6-.24.08,0,.14.21.24.24.22.06.17-.16.72,0,.33.1,2.04-.27,2.16-.24,1.89.52,3.72-.39,5.76.48l.72-.48c.26.36.7.36.96,0l.72.48c.59-.24,3.04-.57,3.36-.48,2.36.65,5.68-.37,8.16.48l.96-.48c.72.4.98.54.84,1.44h-25.32c-.34-.22-1.08-.06-1.44,0-1.01.17-5.2.15-6.24,0-.08-.01-.42-.43-.84-.24l.24-.96c.49-.05,1.09.08,1.56,0,.95-.16,2.58.15,3.84,0,.33-.04.35-.17.6-.24Z"/>
  <path d="M107.32,89.81v8.52c-.59.4-.03.8,0,.96.17.94-.12,2.25,0,3.24-.39-.11-.41.13-.6.24-1.76,1-2.38,1.56-3.48,3.24-.25.39-.8.77-.72,1.32h-11.16c-.16-.21-.47-.39-.6-.6-.14-.22.27-.59-.48-.12-.12-.62.25-.66.6-.24l.48-.48c.76.31,1.65-.11,2.4.48l.72-.48c1.37.2,3.29.23,4.8,0l.48.48c.41-.58.73-.07.96,0,.24.07,1.25-.6,1.32-.84.27-.95.59-.73,1.08-1.56l3.24-3.24c.14-.47-.23-.65-.24-.72-.22-1.23-.28-2.5-.24-3.84l.96-1.44c-.76-.53-.87-1.25-.72-2.16.05-.32.12-.9,0-1.44-.02-.09-.21-.14-.24-.24v-.24c.45-.41.72-.99,1.44-.84Z"/>
  <path d="M89.56,107.33c-.22-.04-.63.14-.72-.12-.1-.28-.26-.54-.24-.84l.96-.24v1.2Z"/>
</svg>