<?xml version="1.0" encoding="UTF-8"?>
<svg id="_レイヤー_1" data-name="レイヤー 1" xmlns="http://www.w3.org/2000/svg" viewBox="0 0 120 120">
  <path d="M26.9,2.62c.06.04-.01.42.39.4.5-.02.77-.43,1.12-.45.44-.03,1.11.33,1.63.34.89.02,2.43-.25,3.33-.12.7.1,1.33.61,1.85.66.38.04.27-.36.49-.44,1.2-.44,2.09.18,3.21.43v-.57c.58.32,1.77-.92,1.47.12.78-.49,1.43-.02,2.05-.02,1.41,0,3.02-.25,4.46-.18.88.04,1.82.46,2.62.2l-.21.65.88.47-.22-1.35c.75-.3,1.49.3,1.92.35.07,0,.95-.32,1.37-.32,1.17,0,2.34.16,3.56-.05l.48.91c.76-1.11.92-.61,1.8-.66.93-.05,3.34-.47,3.5.66l1.69-.89c.37.78,1.01,1.14.56-.01h2.03s.34.68.34.68l.12-.68c.44.13,1.05.16,1.51.15,2.14-.03,4.7-.06,7.04-.04.28,0,.52.34.76.3.3-.05.47-.42,1.17-.41,1.12,0-.19.63-.22.67-.27.34.01.48.23.69l2.26-1.25c1.49.37,3.92-.26,5.2-.03.23.04.24.43.39.53,1.03.66,1.15-.45,1.61-.51,1.07-.15,2.64.25,3.66.28.41.01,2.39-.22,2.56-.14l.11.67,1.13-1.12.34,1.12.45-.11-.11-.57,1.68.02v.66c.58-.38,1.2-.83,1.92-.87,4.77-.23,9.91.13,14.69.16.88,0,1.17.23,1.55.24s2.09-.6,2.59-.67v22.2c.02,9.73.23,19.65-.18,29.33-.03.63.64,1.34-.27,1.58l.45,1.02c-1.12-.06-.9.44.01.57v32.92s-.69.45-.69.45h.68s.01,15.12.01,15.12l-.46.89.47.43-.02,10.95c-4.09.08-8.17-.04-12.25-.14-.61-.01-1.36.26-2.08.16-.44-.06-.43-.87-1.78,0h-16.36s.67-.57.67-.57l-.79-1.24-.53.53.41.49-1.24.78h-5.51c.15-.41.12-1.07.27-1.43.19-.47.8-.17.63-.83-1.21.38-1.13,1.33-1.5,2.27-1.63,0-3.26-.12-4.89-.15-.34,0-.75.19-1.17.17s-.53-.81-1.12-.7l.34.68c-.71-.09-1.67.14-2.32,0-.16-.04-.17-.35-.34-.43-1.26-.6-1.52.93-2.98.43l.11-.45c-.45.12-.57.42-1.12.47-.47.05-3.75.03-3.91-.08-.11-.07.05-.43-.15-.4-.21-.03-.04.33-.15.4-.68.44-7.28-.22-8.63.07-.07-.92-1.22-1.33-1.71-.47l.79.45c-1.65.08-3.28-.04-4.92-.14-.53-.03-.94.54-1.17-.31h-.33c0,.12.02.34-.05.39-.53.37-11.7.24-12.94.08-.53-.07-.21-.47-.43-.47l-.43.47-27.39-.05-.42-22.6.2-.57c.37-.23,1.29.35,1.1-.48-1.95-.31-.98-1.56-.92-2.63.04-.72-.25-2.22.02-2.83.13-.29.87-.54.9-1.08h-1.13c.11-2.05.23-4.13.24-6.2,0-4.82-.1-9.26,0-14,.01-.77-.32-2.52-.2-3.16.09-.53.6-.73.6-.89,0-.09-.36-1.17-.46-1.75-.14-.84-.99-1.79.73-1.98.26-.8-.88-.24-.91-.56.35-.58.03-1.43.09-1.81.05-.29.52-.46.57-.7.06-.31-.47-.63-.54-.95-.02-.09-.12-1.83-.1-1.92.07-.23.92-.4.79-1.27.89-.04,1.87-.14,1.91,1.01v45.8c-.12.9-.85.8,0,1.55l.13,13.91c.23.26,2.12.59,2.49.59.42,0,.78-.37,1.31-.4,1.33-.09,3.96.2,5.41.25.46.02,1.41-.26,1.76-.16.4.11.72.62,1.18.6.42-.02.54-.48.9-.58.53-.15,3.5-.12,4.29-.12.85,0,1.61.56,2.48-.2l.45.9c1.14-.68,1.82-.43,2.89-.54.4-.04.88-.4,1.15-.38.13,0,.09.39.23.42,1.43.34,3.66-.71,5.35.05.22.1.15.67.93.44.13-.04.26-.77,1.05-.45l-.45.56.88.33c-.12-.92.99-1.26,1.67-1.07.41.12.64.84,1.29.63v-.68c.77.47,1.87-.19,2.35-.19.8,0,4.57.19,5.2.39.48.15.39.39.68.7.71-1.75.88-.67,1.79-.66.31,0,.65-.22.94-.21,1.71.05,3.42.28,5.14-.02l.37.67c.96-1,2.7-.26,3.68-.45.21-.04.06-.64.72-.46.08.02.1.44.25.47.38.06.82-.22,1.27-.19,1.43.1,1.41,1.24,1.63,1.3.75.03.4-1.18.92-1.34,1.1.37,2.29.02,3.38.01,3.11-.02,6.06.1,9.21.03,1.42-.03,2.63-.1,4.04.18.24.05-.02.6.48.45l.12-.68c.74.48,1.37,0,2.13,0,1.35-.03,2.7.31,3.95,0l.12.9c1.55-1.1,3.72-.84,5.62-.86,1.8-.02,4.5-.08,6.31.2.35.05.62.43.87.39s.7-.53,1.22-.59c1.01-.11,3.09.2,4.23.2,1.83,0,3.21.1,4.96.16.5.02,2.68-.17,2.8-.55s-.14-.81-.1-1.1c.21-1.81.11-4.5.05-6.57s-.41-4.75,0-6.76c.11-.53-.54-1.22.75-1.43.06-.45-.49-.03-.69-.37-.29-.51-.34-2.64.69-2.67l-.87-1.17.62-.89c.04-.25-.78-1.47-.83-1.82-.01-.09.38-1.27.39-1.77.01-.73-.29-4.79-.11-5.06.38-.58,1.85-.84-.05-1.68.15-1.28.16-2.72.13-4.04-.02-.72-.38-2.77-.32-3.2.08-.55,1.35-.66-.09-1.35.51-1.16.46-2.95.46-4.29.01-3.49.08-7.09,0-10.6,0-.44-.45-.29-.48-.46-.08-.67.61-2.74.61-3.13s-1.24-1.03-.14-1.37c-.17-.39-.3-.95-.03-1.31.24-.32,1.03.02,1.15-.59l-1.33-.56c.87-.93.14-1.3.01-2.03-.16-.9.3-2.71-.03-3.72h.51s.17-.57.17-.57c-.02-.09-.37-.12-.46-.27-.31-.53-.03-10.55-.01-12.12,0-.43-.09-.84-.07-1.62.04-1.42-.34-3.07.99-3.91l-.9.22c0-.94-.14-1.97-.17-2.87-.09-2.83.17-5.98.15-9-.02-1.88-.34-3.71-.34-5.38,0-1.31.55-3.55.28-5-.33-1.84-1.78-.32-2.74-1.45-.73-.06-.43.43-.89.49-.79.1-7.42.13-7.75-.08-.03-.02-.06-.74-.49-.38-.03.03.04.32-.05.38-.5.35-5.66-.14-6.72.06l-.12-.68c-.58.21-.63.6-1.34.69-.59.08-4.86.04-5.09-.12-.21-.14-.14-.58-.33-.57l-.24.69-6.87-.02.23-.56-.57-.12-.24.69-11.83-.02.18-.41c-.64-.05-.54-.79-.66-.91-.09-.09-1.31-.23-1.09.3.17.4,1.06.54,1.01,1.02l-2.9-.03-.32-.3.06-.8-.48.22.03.91-42.4.02-.89-.7-.11.68c-1.16-.12-2.62.17-3.73.01-.9-.13-1.15-.96-2,0l-11.41-.02c-.02,1.11.22,2.09-.45,3.04l.45-.11v4.74s-.68.34-.68.34h.68s0,24.25,0,24.25l-.68-.11c-.23.66.67,1.57.7,1.79.15,1.15-.21,2.33-.22,3.37,0,1.23.2,2.83.21,4.07.01,1.49.19,3.83,0,5.2-.13.89-1.09-.14-1.5-.27-.38-.12-1.03.53-1.13-.89s.67-2.17,1.95-2.45l-1.82-.94c-.07-.47.19-.91.22-1.35.07-1.24-.13-1.52-.29-2.54-.07-.44-.13-3.48-.08-3.72.06-.29.56-.48.6-.73.02-.09-.51-1.11-.55-1.65-.04-.44.13-.82.12-1.25-.02-.45-.26-1.52-.22-1.8.13-.75.92.33,1.12.1.56-.62-.98-.94-1.08-1.26-.09-.27.13-2.57.13-3.13-.01-2.02.03-3.98.07-6.1.02-1.19-.61-3.59.43-4.3v-.44s-.62-.44-.62-.44c.04-.22.19-.48.16-.69-.22-1.94-.04-3.88-.05-5.85s-.17-3.83.04-5.67c.1-.9.19-2.77-.43-3.37.82-.84,2.08-.29,3.04-.32,6.07-.21,12.27-.17,18.27-.17.64,0,1.27.16,1.92.16l-.23.67h.56s.35-1.12.35-1.12c.22-.01.41-.04.61.07Z"/>
</svg>