<?xml version="1.0" encoding="UTF-8"?>
<svg id="_レイヤー_1" data-name="レイヤー 1" xmlns="http://www.w3.org/2000/svg" viewBox="0 0 120 120">
  <path d="M18.85-.2l.16.45c.5-.09.89-.24,1.42-.27,1.66-.09,4.13-.04,5.73.08.41.03.88.3,1.36.17l.12,1.2c.87-.65-.09-1-.12-1.68.79-.07,1.43-.02,2.08.46l.89-.44c.84.84,2.33.24,3.38.21,1.44-.04,2.53.37,3.85-.24,1.54,1.34,4.08-.09,5.51,0,.41.03.72.41,1,.44,1.49.16,3.73-.36,5.26-.2.92.09,1.23.83,2.15.07.7.12,1.04,1.03,1.68,1.14.47.08.39-.11.36-.48h-.96c.71-1.12,1.88-.81,2.76,0l.12-.96c.11-.09,1.68.46,2.06.48.4.02.76-.22,1.17-.25.8-.06,1.43.31,2.15.03l.5.7.76-.45c.49-.18.93.26,1.39.22.38-.03.55-.46.96-.48.82-.04,2.23.15,3.08.17,3.94.07,7.82-.21,11.82.06.73.05,1.36-.73,2.02.37l.36.12c.37,0,.67-.5,1.06-.61.3-.09,1.41-.12,1.43.23l-.21.61h.6s.51-.69.51-.69c1.14-.34,1.74.23,2.1.17.74-.11,1.44-.44,2.45-.44.56,0,1.01.28,1.65,0l.26.24c-.07.46.01.79.59.72l-.12-.72c.43.49.71-.13,1.01-.2,1.53-.35,1.98.28,3.28-.02l.75.69.12-.48c.6-.03,1.2-.15,1.8-.2,1.29-.11,2.78-.09,4.08-.06.86.02,1.77.18,2.64.11l.84.87c.03-.24-.15-.67.14-.73.33-.07.94-.21,1.2-.23.84-.05,2.32-.19,3.05-.18.49.01,1.28.4,1.72.39.3,0,.58-.24.94-.22,1.62.09,2.74.9,4.16,1.49,1.07,1.35,1.9,2.68,1.73,4.5l-.96-.24.93.75-.08,18.7-.85.59.97.75v28.76s-.97.49-.97.49l.85.59.12,42.38-.5,1.19.5.26c.11,1.24-.08,2.19-.51,3.33l.51.27c-.21,1.52.46,3.41-.49,4.66l.49.14-.07,6.54-.43.18c.15,2.21-2.66,4.22-4.67,4.42-3.97.39-8.24-.19-12.2-.18-.88,0-2.04.19-2.91.19-5.88.01-11.77-.03-17.65-.01l-.12-.48-.26.49h-6.69c-.27-.04.03-.97-.73-.97-.8,0,.2.64-.12.96h-1.92s.72-.6.72-.6l-1.08-.61-.24.49-1.32-.48.17.72c.42.08.65-.23.55.48h-7.2s0-.96,0-.96h-.96s.48.96.48.96h-11.14s-.26-.48-.26-.48l-1.19.5h-21.61c-.38-.24.04-.56.27-.7.61-.38,1.29-.09,1.77-.63l-1.28-.31-1.49.91.14.72h-3.45s-.51-.72-.51-.72l-.51.73c-1.35-.03-2.71,0-4.06,0-.35,0-.66-.23-.95-.23-.69,0-1.77.44-2.62.23l-.26-.49h-.36s-.14.49-.14.49c-3.27-.22-6.83.25-10.07,0-.7-.05-3.06-.64-3.2-1.36l.21-1.05-1.2.24c.15-.68-.96-1.78-.96-2.27,0-.27.24-.61.26-.97.04-.78-.29-1.81-.15-2.64.12-.74.26-1.76.09-2.59-.08-.4-.53-.72-.46-1.25l.48-.23c-.65-1.03.16-2.34.18-3.42.01-.57-.39-1.26-.43-1.87-.04-.76.33-1.36.02-2.14l.71-.5v-.24c-1.07-.68-.5-1.35-.57-2.35-.14-2.05-.06-3.5-.07-5.53-.02-3.25.31-6.6-.28-9.85l.4-.55c-.26-2.64-.32-5.25-.2-7.87.04-.78.6-1.43.73-2.17l-.73.35.24-2.24.49-.51c.1-.77-.68-1.93-.75-2.41-.09-.67.48-1.71.44-2.36-.06-.89-.43-2.13-.44-3.15-.01-2.07.58-4.36.07-6.29-.24-.91.18-1.41.21-2.12.02-.64-.37-1.12-.02-1.8l1.68.48v-.72c-.95.18-1.32-.5-1.92-1.08l.96.12v-1.44s-.71,0-.71,0c-.17-1.08-.2-2.13-.26-3.22-.09-1.35.22-1.09.27-1.7.03-.35-.24-.65-.24-.96,0-.82.5-1.39-.27-2.4l.5-.26-.06-3.07-.42-.72c.64-.66.22-1,.22-1.5,0-.54.3-.93,0-1.54l.96-.36-.72-.23L0,31.32c.25-.61.37-1.03.28-1.69-.25-1.86.19-4.05.02-6.01-.01-.16-.28-.29-.29-.45-.06-.67.42-1.44.64-2.05.16-.17.65.44.71.12.07-.39-.44-.54-.74-.71-.15-.08-.28-.15-.45-.15.51-.65.07-1.27.07-1.83,0-2.81-.07-5.67.38-8.39.05-.29-.4-.53-.46-.92-.1-.63.22-1.01.25-1.46.04-.63-.27-1.97-.24-2.61.04-.8,1.21-2.21,1.57-3.03.19-.42-.43-1.08.83-.95,0,.48-.19.86.48.72V.48c.85.2,1.97.02,2.88-.11,1.83-.26,3.55-.13,5.16-.55.93.72,1.65-.29,2.4.87.88-.67,2.73-.39,3.83-.44.53-.03.96-.69,1.54-.44ZM38.08.96l-.12-.48-.24-.24h-.36s0,.72,0,.72h.72ZM100.24.96l-.48-.48v.48s.48,0,.48,0ZM104.08.96v-.48s-.12,0-.12,0l-.36.48h.48ZM22.24.72h-.48v.72h.48v-.72ZM41.44.72h-.48v.24h.48v-.24ZM67.48.72c-.16,0-.16.24,0,.24s.16-.24,0-.24ZM69.16.72c-.16,0-.16.24,0,.24s.16-.24,0-.24ZM71.68.72h-.48v.48h.48v-.48ZM82.72,1.44l.96-.36-.6-.36-.36.72ZM101.56.72c-.16,0-.16.24,0,.24s.16-.24,0-.24ZM56.8.96h-.48v.24h.48v-.24ZM67.12.96h-.48v.24h.48v-.24ZM29.92,1.2h-.48v.24h.48v-.24ZM33.04,1.2h-.48v.24h.48v-.24ZM79.84,1.2c-.3-.16-.84.39-.72.48.36-.1.44.16.72.24v-.72ZM94.96,1.2h-.36s-.36.48-.36.48h.72s0-.48,0-.48ZM7.6,1.68h-.72s0,.36,0,.36l.36.36h.36s0-.72,0-.72ZM31.6,1.68h-.96c-.22.22.54,1.13.96.96v-.96ZM74.32,3.12h-3.36c-.23-.26.08-1.17-.12-1.2-.35-.05-.7-.13-.6.36l.48.84c-1.07-.12-2.46.17-3.48,0-.36-.06-.61-.43-.72-.43-.12,0-.31.31-.52.38-.92.28-2.1-.26-3.06.06h-17.17s.14-.98.14-.98l-1.34-.47.96,1.44h-20.49c-.26-.03-.25-.93-.87-.72v.71s-4.67.02-4.67.02c-.31-.05.14-.95-.48-.73-.43.15-.54.37-.75.73-3.99.34-8.8-.49-12.68,0-1.37.18-2.34,1.41-2.54,2.74l-.1,17.91-.61.34.72.24v21.34s-.49.28-.49.28l.06,1.02.37.07.06,32.25-.23.73-.74.46.96.12-.02.94-.94.26.97.61-.02,31.43c0,1.24,1.4,1.81,1.21,2.99.67-.7,1.23-.15,2.06-.03,2.12.31,4.27-.23,5.98.69,1.04-.55,3.05-1.1,3.87.03.86-.22,1.48-.73,2.36-.2l.17-.44c.34-.16,1.33-.11,1.36.3l-.07.61.74-.94c.44.03,1.54.49,1.86.42.19-.04.35-.32.56-.39.64-.21,2.26.26,3.05.22l.17-.46c1.88.73,3.97,0,6.07.21.51.05,1.07.28,1.59.33l.22.61h.48c0-.8.91-.85,1.56-.98l.6.38-.11.61c.58.03,1.36-.96,1.45-.98.5-.1,2.47.2,3.15.19,4.23-.06,8.51.03,12.69-.16,1.22-.06,2.41.13,3.59-.27l.49.51c1.88-.04,3.79-.87,5.54.2l.68-.4c.74.85.93.16,1.44.05.54-.12,1.27.06,1.73.05,1.34-.01,2.73.08,4.04-.1.69.31-.1,1.39.95,1.14l.49-1.2c.5-.01.91.32,1.42.25.39-.06.56-.46.91-.45s2.06.44,2.23.66c.48.65-.64.97-.25,1.45l1.8-.24c.22-.98-.92-.19-.96-.24l-.24-1.08c.17-.3.27-.22.49-.26.48-.08,1.25-.27,1.6-.29.4-.02,1.34.23,2.16.25.56.01,2.1.36,2.36.34.17-.01.49-.43.82-.53.79-.24,1.74.72,2.77-.14l.26.51c.88-.28,1.69-.31,2.61-.24,1.52.11,3.71.52,5.05-.2,1.44.47,3.56.43,5.09-.02,3.06.75,6.66-.39,9.79.41l2.04-.21c.07.4-.27,1.06.36.96.39-.06,1.21-.9,1.67-1.21.27-.19.64-.17.79-.28.07-.06.95-1.46.97-1.55.24-.85-.14-1.61-.13-2.31.02-1.29.43-3.01.43-4.36,0-.59-.51-1.63-.45-2.13.03-.29.4-.59.44-1,.14-1.37-.27-3.36-.26-4.79,0-.45.13-1.69.63-1.8l.7.47c.53-.47,1.01-1.55.12-1.92.74,1.2-1.34,1.37-1.43.83.34-.59-.05-1.08-.03-1.67.02-.42.27-.78.28-1.2,0-.59-.41-1.05-.46-1.49-.03-.26.41-.57.46-1.14.15-1.66-.19-3.4-.21-5.05-.04-2.52.48-5.97-.24-8.2-.08-.26-.04-.54-.04-.8l.48.24-.24-1.44.72.12c0-.43-.51-.66-.61-1.06-.06-.25.15-.71.14-1.1-.03-1.13-.3-2.16-.02-3.33l.48-.16v-.47c-.44-.02-.92-.36-.96-.85-.09-.45.45-1.12.41-1.45-.09-.86-.57-2.24.27-3.11l-.4-.53c.14-.79.34-1.19-.23-1.88l.67-.74c.07-.32-.48-.54-.47-.92.03-1.41.38-2.97-.24-4.34.3-1.19.76-3.29.67-4.51-.04-.52-.92-2.85-.04-3.03l1.06.23v-.96c-2.28.33-1.37-1.73-1.27-3.05.22-2.83-.12-6.07-.13-9.07-.01-1.89.12-3.85.21-5.76.03-.57-.35-2.44.03-2.73l.68-.03v-.36s-.69-.51-.69-.51c-.22-.64-.03-1.29-.04-1.87-.02-.76-.5-1.2.49-1.95l-.72-.12c-.07-.05.17-.25.17-.39-.04-2.33-.23-5.11-.13-7.41.03-.77.2-1.32.44-2.04l-.73-.12c.23-.3.07-.72.11-.95.04-.22.29-.35.32-.51.05-.24-.19-.5-.18-.71.03-.94.19-1.58.7-2.36-1.05-.83-.91-2.07-.24-3.12-.71-.53-1.16-1.55-1.79-2.07-1.44-1.2-3.33-.55-5.04-.72-.29-.03.28-.34,0-.48-.21.24-.39.43-.72.48-2.16.33-5.07-.25-7.32,0l.36-.72-.75.73c-1.77-.21-4.03.25-5.73,0-.33-.05-.52-.24-.72-.48l-.26.49h-7.3c.78-1.19-.99-.91-.48-.01h-12.57c-.31-.04-.86-2.17-1.83-1.32l1.2,1.32ZM53.92,2.88l-.24-1.2c-.5.28-.75.85-1.44.72-.19.89,1.17.34,1.68.48ZM63.52,1.68h-.96c-.1.09.24.35.36.48h.24l.36-.48ZM93.52,2.16l-.48-.48v.48s.48,0,.48,0ZM97.72,1.68c-.16,0-.16.24,0,.24s.16-.24,0-.24ZM12.04,1.92c-.16,0-.16.24,0,.24s.16-.24,0-.24ZM76.72,1.92h-.48s0,.48,0,.48l.48-.48ZM28.84,2.16c-.16,0-.16.24,0,.24s.16-.24,0-.24ZM34.48,2.88v-.36s-.48-.36-.48-.36v.72s.48,0,.48,0ZM61.12,2.64v-.48h-.24v.48h.24ZM103.84,2.16h-.72s.24.72.24.72h.48s0-.72,0-.72ZM114.16,2.88c.09.12.63-.42.48-.72-.09-.12-.63.42-.48.72ZM72.16,2.88v-.48h-.24v.48h.24ZM104.68,2.64c-.16,0-.16.24,0,.24s.16-.24,0-.24ZM2.08,3.6h-.48v.48h.48v-.48ZM1.12,8.88l1.2-.12.48-.84c-.56.62-1.69-.11-1.68.96ZM118.96,10.8h-.48v.48h.48v-.48ZM1.6,12h-.72v.72h.72v-.72ZM2.32,14.16h-.48v.48h.48v-.48ZM118.24,18.24h-.72v.48h.72v-.48ZM118.24,21.12v-.48h-.24v.48h.24ZM119.2,28.08l-.23-1.09-1.45-.11c-.37.33,1.39,1.49,1.68,1.2ZM119.2,29.04h-.48v.48h.48v-.48ZM2.8,29.76c-.33,0-.64.09-.97.1-.46.01-.3-.13-.23.38l1.2.24v-.72ZM2.32,34.08v-.36s-.24-.24-.24-.24l-.48-.12.24.72h.48ZM118.6,43.2c-.73.46-.28,1.42.48,1.2l.36-.36-.84-.84ZM118,45.12v-.72h-.24v.72h.24ZM2.44,48.48c-.16,0-.16.24,0,.24s.16-.24,0-.24ZM119.08,50.16c-.16,0-.16.24,0,.24s.16-.24,0-.24ZM119.2,51.6h-.72s0,.48,0,.48l.72.24v-.72ZM1.12,56.88v-.48h-.24v.48h.24ZM1.24,60.96c-.16,0-.16.24,0,.24s.16-.24,0-.24ZM1.6,62.64h-.72s0,.72,0,.72l.48-.12.24-.24v-.36ZM2.56,63.84v-.48h-.24v.48h.24ZM118.24,63.36l-.96.24v.24s.96,0,.96,0v-.48ZM118.12,73.2c-.16,0-.16.24,0,.24s.16-.24,0-.24ZM117.64,75.36c-.16,0-.16.24,0,.24s.16-.24,0-.24ZM2.32,77.28v-.72h-.24v.72h.24ZM2.56,78.24h-.72s0,.48,0,.48h.36s.36-.48.36-.48ZM119.44,78.24h-.48v.24h.48v-.24ZM118.72,79.68v-.48h-.24v.48h.24ZM1.84,80.4h-.6s-.36.36-.36.36l.36.36h.36s.24-.72.24-.72ZM119.2,81.36h-.48v.24h.48v-.24ZM118.48,84.96h-.48v.72h.48v-.72ZM2.56,89.28h-.72s0,.48,0,.48h.36s.36-.48.36-.48ZM118.96,89.28h-.48v.48h.48v-.48ZM2.08,91.92h-.72v.48h.72v-.48ZM118.48,91.92h-.48v.24h.48v-.24ZM119.44,92.4h-.48v.48h.48v-.48ZM2.8,97.68l-.72-.24v.48s.72,0,.72,0v-.24ZM118.6,100.8c-.16,0-.16.24,0,.24s.16-.24,0-.24ZM2.8,103.2l-1.68-.48.13.72,1.55-.24ZM1.84,110.4v-.48h-.24v.48h.24ZM3.52,115.68h-.96s0,.72,0,.72l.96-.48v-.24ZM4.36,117.12c-.16,0-.16.24,0,.24s.16-.24,0-.24ZM7.84,118.08v-.6s-.72,1.32-.72,1.32c.43.17.62-.43.84-.42.16,0,.59.65,1.08.42.17-.71-.77-.66-1.2-.72ZM32.08,117.36h-.48s0,.12,0,.12l.48.36v-.48ZM39.28,117.6l-.96-.24.6.72.36-.48ZM43.6,118.56l.48-.36v-.24c-.13-.12-.39-.46-.48-.36v.96ZM56.56,118.8c.3.11,1.93.38,1.92-.12l-.72-1.08c.01,1.16-1.22,0-1.2,1.2ZM60.64,118.32c.16-.3-.38-.84-.48-.72-.16.3.38.84.48.72ZM89.44,118.8l.84-.48-.12-.61-1.21-.11.48,1.2ZM115.84,117.6h-.72s0,.96,0,.96c.33-.06.92-.76.72-.96ZM117.52,117.6h-.48v.48h.48v-.48ZM22.96,117.84h-.48s0,.96,0,.96l.48-.36v-.6ZM55.6,117.84h-.72s0,.36,0,.36l.36.36h.36s0-.72,0-.72ZM69.52,117.84c-.56-.1-.98.2-1.2.72l.97-.11.23-.25v-.36ZM93.16,117.84c-.16,0-.16.24,0,.24s.16-.24,0-.24ZM101.68,118.56v-.72s-.12,0-.12,0l-.36.36v.36s.48,0,.48,0ZM17.68,118.08h-.48s-.24.96-.24.96h.72s0-.96,0-.96ZM50.2,118.08c-.16,0-.16.24,0,.24s.16-.24,0-.24ZM65.2,119.04l-.36-.72h-.24s-.36.96-.36.96l.96-.24ZM82.24,119.28c.52.19.98-.39,1.31-.4.49-.02,1.11.79,1.56.04-.81-1.14-1.37-.36-2.3-.13-.41.1-.7-.23-.58.49ZM103.12,118.32h-.48s.36.48.36.48h.12s0-.48,0-.48ZM10.12,118.56c-.16,0-.16.24,0,.24s.16-.24,0-.24ZM113.2,118.56h-.72s0,.96,0,.96h.24s.48-.96.48-.96ZM104.8,118.8h-.72s0,.12,0,.12l.36.36h.36s0-.48,0-.48ZM32.8,119.52v-.48h-.24v.48h.24ZM48.4,119.04h-.72v.48h.72v-.48ZM94.24,119.04l-1.68.12c.3.42.63.36,1.08.37.5.01.7.14.6-.49Z"/>
  <path d="M113.2,5.28l-.5,1.42-2.86.02.59-1.39c.66.52,1-.29,1.44-.29.36,0,.86.38,1.33.24Z"/>
  <path d="M6.64,91.68v2.16s-1.68,0-1.68,0c.45-.91-.25-1.48-.24-2.4l1.92.24Z"/>
  <polygon points="6.64 95.76 6.64 97.68 4.72 97.68 4.72 95.52 6.64 95.76"/>
  <path d="M67.82,5.3l.02,1.42h-2.16c-.21-1.62.75-2.04,2.14-1.42Z"/>
  <path d="M6.64,67.68v2.16s-1.68,0-1.68,0c.35-.58-.11-1.24.11-1.68.27-.55,1.04-.52,1.57-.48Z"/>
  <path d="M95.66,5.3l.02,1.42h-1.92c0-.67.12-1.32-.24-1.92l2.14.5Z"/>
  <polygon points="6.62 24.02 6.64 25.68 5.2 25.68 5.21 24.62 4.77 24.44 4.72 23.52 6.62 24.02"/>
  <path d="M59.68,5.04v1.68s-1.53,0-1.53,0c-.25-.32-1.02-1.02-.61-1.43.52-.51,1.58.1,2.14-.26Z"/>
  <path d="M6.62,55.94l.02,1.9h-1.68s.28-1.88.28-1.88c.51-.3.85-.23,1.38-.02Z"/>
  <path d="M6.64,15.84v1.92s-1.92,0-1.92,0l.47-1.57c.44-.3.91-.41,1.45-.35Z"/>
  <path d="M6.64,19.68v2.16s-1.68,0-1.68,0c.46-.47-.09-1.1.1-1.44.32-.54.96-.85,1.57-.72Z"/>
  <path d="M79.84,5.04v1.68s-1.91-.01-1.91-.01c-.1-.62-.3-1.06.22-1.56l.37-.12h1.32Z"/>
  <path d="M55.84,5.04v1.68s-2.16,0-2.16,0c.48-.48-.29-1.55.37-1.68.29-.06,1.2.59,1.79,0Z"/>
  <path d="M6.64,31.92v1.92s-1.42-.02-1.42-.02c-.25-.62-.32-1.23-.26-1.9h1.68Z"/>
  <path d="M31.84,6.72l-1.78-.02-.31-.34.05-.85.36-.36,1.3-.11c.55.13.37,1.22.38,1.67Z"/>
  <polygon points="11.68 5.04 11.68 6.72 9.52 6.72 9.79 5.43 9.99 5.14 11.68 5.04"/>
  <path d="M73.36,113.28v1.44s-2.16,0-2.16,0l.24-1.68c.6.36,1.25.24,1.92.24Z"/>
  <path d="M6.63,79.93v1.91s-1.66-.25-1.66-.25l.1-1.44c.49-.53.94-.31,1.56-.22Z"/>
  <path d="M6.62,28.1l.02,1.66h-1.68c-.03-.74-.07-1.48.48-2.05l1.18.38Z"/>
  <path d="M109.36,113.52v1.2c-.75-.23-1.39-.06-2.15,0l-.25-1.43,2.4.24Z"/>
  <polygon points="83.68 4.8 83.68 6.72 81.76 6.72 81.86 5.5 83.68 4.8"/>
  <path d="M6.64,9.84l-1.42-.02c-.36-.73-.25-1.55.35-2.14,1.3.22,1.11,1.06,1.07,2.16Z"/>
  <path d="M51.76,5.04v1.68s-1.67,0-1.67,0c-.05-.3-.3-1.39-.02-1.56l1.69-.11Z"/>
  <path d="M87.74,5.3l.02,1.42h-1.92s.25-1.67.25-1.67c.58-.1,1.11.07,1.65.25Z"/>
  <polygon points="49.33 113.54 49.36 114.72 47.2 114.72 47.7 113.06 49.33 113.54"/>
  <path d="M6.64,99.84v1.92s-1.42-.02-1.42-.02l-.25-.82c.17-1.02.69-1.21,1.67-1.08Z"/>
  <path d="M6.64,41.76l-1.42-.02-.28-1.05.49-.73c1.44-.53,1.24.74,1.21,1.81Z"/>
  <path d="M6.63,43.93v1.91s-.47-.72-.47-.72c-.82-.3-.19,1-.84.72-.56-.24-.34-1.4-.35-1.91h1.66Z"/>
  <path d="M6.62,76.1l.02,1.66h-1.68c-.08-1.23.24-2.4,1.66-1.66Z"/>
  <path d="M99.75,5.29l-.22,1.33-1.69.11c-.24-1.97.41-1.62,1.91-1.43Z"/>
  <polygon points="114.64 39.12 114.64 41.04 113.44 40.92 112.99 40.41 113.2 39.12 114.64 39.12"/>
  <path d="M114.64,14.88v2.16s-1.44,0-1.44,0c.46-.71-.5-1.63.38-2.14l1.06-.02Z"/>
  <path d="M6.64,47.76v1.92s-1.45-.11-1.45-.11c-.54-.35-.09-1.54.4-1.78l1.05-.03Z"/>
  <polygon points="114.64 58.8 114.64 60.96 112.96 60.96 113.07 59.75 114.64 58.8"/>
  <path d="M43.84,6.72c-1.07.03-2.89.25-1.76-1.2l1.76-.48v1.68Z"/>
  <path d="M6.63,84.01v1.67s-1.67,0-1.67,0c.2-1.36-.15-2.23,1.67-1.67Z"/>
  <path d="M6.63,60.01v1.67s-1.67,0-1.67,0c-.15-.14.21-1.62.47-1.82l1.19.15Z"/>
  <path d="M91.84,5.28v1.44c-.52-.08-1.76.22-2.05-.24-.04-.06-.07-1.16.26-1.2h1.79Z"/>
  <polygon points="39.76 5.04 39.76 6.72 37.84 6.72 38.31 5.15 38.67 5.05 39.76 5.04"/>
  <polygon points="27.76 5.04 27.76 6.72 26.09 6.71 26.12 5.32 27.76 5.04"/>
  <path d="M114.64,12.96h-1.44c-.06-.75.01-1.45.24-2.16l1.09.47.11,1.69Z"/>
  <polygon points="114.64 98.88 114.53 100.81 113.2 101.04 113.68 100.32 112.96 99.72 113.67 99 114.64 98.88"/>
  <polygon points="85.36 113.28 85.36 114.72 83.44 114.72 83.2 113.52 85.36 113.28"/>
  <path d="M114.64,29.04h-1.44c-.05-.66,0-1.28.27-1.89l1.17-.27v2.16Z"/>
  <path d="M37.36,113.28v1.44s-2.16,0-2.16,0l.27-1.17c.61-.28,1.23-.32,1.89-.27Z"/>
  <path d="M61.36,114.72h-2.16s.28-1.16.28-1.16c.46-.21,1.2-.48,1.65-.18l.23,1.33Z"/>
  <path d="M15.74,5.3l.02,1.42h-1.92s.22-1.32.22-1.32c.61-.28,1.06-.39,1.68-.1Z"/>
  <path d="M21.27,113.53v1.19s-1.91,0-1.91,0c-.13-.46.13-.76.23-1.09.04-.16-.75.03-.47-.58l2.15.49Z"/>
  <path d="M35.68,5.04v1.68s-1.68,0-1.68,0l-.14-1.2c.2-.26,1.68-.62,1.82-.47Z"/>
  <polygon points="75.76 5.04 75.76 6.72 73.6 6.72 74.04 6.09 73.84 5.52 75.76 5.04"/>
  <path d="M71.64,5.55l.04,1.17h-1.92c-.13-.13.28-1.58.61-1.68l1.28.51Z"/>
  <path d="M6.64,108v1.68s-1.92,0-1.92,0c-.26-.65.45-.36.49-.62v-1.06s1.43,0,1.43,0Z"/>
  <path d="M91.84,113.04l.12.96c.23-.03.87-1.3,1.2-.72.24.43.08.97.12,1.44h-1.92s-.24-1.68-.24-1.68h.72Z"/>
  <path d="M6.62,12.02l.02,1.66h-1.68c.34-.59.34-1.09,0-1.68l1.66.02Z"/>
  <path d="M89.2,113.28v1.44s-1.92,0-1.92,0c-.17-1.37.73-1.58,1.92-1.44Z"/>
  <path d="M114.64,86.88v2.16s-1.21-.11-1.21-.11c-.24-.15-.3-.47-.23-.73.2-.74,1.24.33.96-.6l-.96-.36,1.44-.36Z"/>
  <path d="M114.62,107.3l.02,1.66-1.45-.11c-.5-.31.17-1.61.64-1.78l.79.23Z"/>
  <path d="M103.84,5.04v1.68s-1.2,0-1.2,0l.72-.84c.07-.2-.5-.18-.73-.01-.38.29.05,1.06-.71.85l-.25-1.33,2.16-.36Z"/>
  <path d="M6.64,64.08v1.68s-1.43,0-1.43,0c-.06-.66-.16-1.26,0-1.92l1.44.24Z"/>
  <polygon points="114.64 78.96 114.64 80.88 113.22 80.86 112.94 80.05 113.37 79.87 113.55 79.2 114.64 78.96"/>
  <path d="M114.64,32.88h-1.44s.04-1.28.04-1.28c1.19-1.56,1.61-.05,1.4,1.28Z"/>
  <path d="M114.64,102.96v1.92s-1.44,0-1.44,0c-.08-1.09.15-2.15,1.44-1.92Z"/>
  <path d="M45.28,113.28v1.44s-1.92,0-1.92,0c-.17-1.37.73-1.58,1.92-1.44ZM44.92,114c-.16,0-.16.24,0,.24s.16-.24,0-.24Z"/>
  <path d="M114.64,62.88v1.2s-.48-.12-.48-.12l.48,1.08-1.21-.11-.11-1.57c.32-.49.76-.53,1.32-.48Z"/>
  <polygon points="25.36 114.72 23.2 114.72 23.69 113.28 25.13 113.39 25.36 114.72"/>
  <path d="M105.28,114.72h-2.16s.25-1.19.25-1.19l1.54-.24c.54.31.37.9.38,1.43Z"/>
  <polygon points="6.64 105.84 4.96 105.84 5.07 104.63 6.38 104.36 6.64 103.92 6.64 105.84"/>
  <polygon points="114.64 67.2 114.64 68.88 112.96 68.88 113.42 67.3 114.64 67.2"/>
  <polygon points="107.68 5.28 107.68 6.72 106.02 6.7 105.52 5.04 106.62 5.75 107.68 5.28"/>
  <path d="M114.64,56.88l-1.18-.02c-.11-.44-.47-1.01-.15-1.43.16-.21.75-.16.61-.7,1.11,0,.63,1.39.72,2.16ZM114.4,56.64v-.48h-.24v.48h.24Z"/>
  <path d="M13.36,113.52v1.2c-.6.04-1.18.02-1.68-.37l-.72-1.07,2.4.24Z"/>
  <path d="M6.64,87.84v1.92s-1.68,0-1.68,0l.48-1.92c.48.28.72.28,1.2,0Z"/>
  <polygon points="101.2 113.28 101.2 114.72 99.53 114.71 99.28 113.52 101.2 113.28"/>
  <path d="M19.84,5.76v.96s-2.16,0-2.16,0c0-.54-.15-1.09.36-1.44.64.32,1.01.64,1.8.48Z"/>
  <path d="M6.64,37.68c-.79.14-1.19-.62-1.67-1.1l.83-.83c1.15-.13.82,1.14.84,1.93Z"/>
  <polygon points="114.63 47.29 114.64 48.96 113.2 48.96 113.31 47.51 114.04 47.12 114.63 47.29"/>
  <polygon points="114.61 75.39 114.64 77.04 113.45 77.03 113.32 75.35 113.8 74.91 114.61 75.39"/>
  <path d="M77.2,114.72h-1.92s.23-1.09.23-1.09l1.31-.34c.54.31.37.9.38,1.43Z"/>
  <path d="M114.64,18.96v1.92s-1.44,0-1.44,0c.31-1.02-.11-2.16,1.44-1.92Z"/>
  <path d="M63.75,5.29v1.43s-1.43,0-1.43,0l.24-.72c-.54.38-1.04-.25-.48-.6s1.08-.21,1.67-.11Z"/>
  <path d="M47.66,5.55l.02,1.17h-1.67c-.46-1.55.38-1.92,1.65-1.17Z"/>
  <path d="M81.28,113.52v1.2s-1.92,0-1.92,0c.46-.54-.2-1.06.36-1.44l1.55.24Z"/>
  <path d="M9.28,114.72c-.52-.01-1.04.02-1.56,0-.29-.01-.48.06-.36-.36.46-1.51,2.33-1.55,1.92.36Z"/>
  <polygon points="114.62 71.3 114.64 72.96 113.45 72.96 113.31 71.52 113.83 71.07 114.62 71.3"/>
  <path d="M114.62,95.3l.02,1.66-.94-.02c0-.72-.69-1.11-.5-1.9l1.42.26Z"/>
  <path d="M114.64,84.96h-1.44c.31-.49.21-.79.01-1.3l1.43-.62v1.92Z"/>
  <path d="M6.62,52.1l.02,1.66-.48-.12.24-.6-.97.13-.71-.97c.5-.68,1.27-.3,1.9-.1Z"/>
  <polygon points="114.62 91.22 114.64 92.88 113.44 92.88 113.44 90.96 114.62 91.22"/>
  <path d="M114.63,111.13c-.02.65.25,1.45-.35,1.9-.94-.47-1.41-1.18-.61-2.06l.95.15Z"/>
  <path d="M17.2,113.28l-.05.68-.41.14.23.62h-1.68s.26-.58.26-.58l-.5-.61,2.16-.24ZM16.48,114.24h-.48v.24h.48v-.24Z"/>
  <polygon points="33.27 113.53 33.28 114.72 31.6 114.72 31.83 113.39 33.27 113.53"/>
  <polygon points="97.34 113.54 97.36 114.72 96.76 114.24 95.44 114.72 95.68 113.39 97.34 113.54"/>
  <path d="M29.18,113.54l.02,1.18h-1.68s.01-1.19.01-1.19c.63-.1,1.04-.3,1.65,0Z"/>
  <path d="M114.64,44.88h-1.44c-.12-1.3.05-2.22,1.33-1.21l.11,1.21Z"/>
  <polygon points="65.2 113.52 65.2 114.72 63.28 114.72 63.88 113.28 64.39 113.72 65.2 113.52"/>
  <path d="M57.28,113.52v1.2s-1.66-.02-1.66-.02c-.38-.82-.28-1.07.58-1.36l.51.37.56-.2Z"/>
  <path d="M113.2,114.48l-1.92.24.28-1.16.84-.25c.43-.14.92,1.05.79,1.16Z"/>
  <polygon points="6.64 71.76 6.64 73.68 5.92 73.68 5.92 72.97 4.96 72.96 5.43 71.87 6.64 71.76"/>
  <path d="M68.8,113.28c.88-.19.36,1,.48,1.44l-1.69-.11v-1.33s1.09.96,1.09.96l.12-.96Z"/>
  <path d="M114.64,7.2v1.68s-1.44,0-1.44,0c-.19-.97.51-1.57,1.44-1.68Z"/>
  <polygon points="114.64 53.04 114.04 52.08 113.92 53.04 113.2 53.04 113.48 51.15 114.4 50.88 114.64 53.04"/>
  <polygon points="23.2 5.28 22.72 6.48 23.68 6.72 21.76 6.72 21.76 5.28 23.2 5.28"/>
  <path d="M114.62,35.98l-.69.4.23.58h-.71c-.15-.55-.36-1.7.23-2.05.35-.21,1.25.55.94,1.07Z"/>
  <path d="M41.2,113.52v1.2s-1.92,0-1.92,0c.36-.97.84-1.37,1.92-1.2Z"/>
  <path d="M7.84,5.28l-.02,1.42-1.02.24-.64-.58c.18-.24,1.49-1.28,1.68-1.08Z"/>
  <path d="M5.2,112.08c.64.03,1.6-.25,1.68.6l-1.32.84c-.51-.35-.36-.9-.36-1.44Z"/>
  <polygon points="52 113.52 52 114.24 53.2 113.52 53.2 114.72 51.51 114.61 51.28 113.88 52 113.52"/>
  <path d="M114.39,24.95h-1.19s1.08-1.91,1.08-1.91c.74.52.12,1.23.11,1.91Z"/>
  <rect x="23.44" y="5.28" width=".24" height=".48"/>
  <path d="M5.32,53.52c.16,0,.16.24,0,.24s-.16-.24,0-.24Z"/>
  <path d="M90.28,4.8c.16,0,.16.24,0,.24s-.16-.24,0-.24Z"/>
</svg>