<?xml version="1.0" encoding="UTF-8"?>
<svg id="_レイヤー_1" data-name="レイヤー 1" xmlns="http://www.w3.org/2000/svg" viewBox="0 0 120 120">
  <path d="M80.48,8.4l.48-.18v-.54c4.13,1.32,7.83,3.77,11.4,6.24,5.12,3.55,9.99,8.03,13.75,13.36.33.46,1.86,2.6,1.93,2.9.13.54-.52.81-.45,1.13.41.47.96.28,1.45.72,1.06.94,1.41,3.29,2.33,4.39l2.67,6.91c-.45.4-.86.29-.68,1.07l.96-.24c.01.94.57,1.94.67,2.83.09.8-.19,1.16-.19,1.6,0,.16.43.12.56.43.63,1.43,1.07,7.37,1.13,9.18.03.8.14,3.5-.05,4.05-.24.69-1.6.42-1.04,1.12l.83-.24c.25.3-.5,6.23-.74,7.02-.06.2-.46.19-.46.32-.01.61.32,1.53.01,2.35l-.73.15.48.57c-.41,1.3-.71,2.64-1.13,3.93-.72,2.23-2.17,5.32-3.09,7.51-.17.39-.65,1.55-.98,1.64-.7.19-1.72-1.02-1.52,1.22.1.12,1.2-.63.95.12s-2.33,3.68-2.92,4.52c-2.09,2.95-4.54,5.73-7.16,8.23-.9.86-1.99,1.91-3.14,2.84-7.04,5.68-17.57,11.36-26.96,11.66-.13,0-.13.4-.32.46-1.99.61-4.4.25-6.41.74l.35-1.68-1.13,1.68c-4.86-.03-9.74-.44-14.47-1.56-.82-.19-2.81-.57-3.43-.89-.28-.14-.4-.36-.41-.67l-.35.47-5.77-2.39c-.36-.5,1.65-.68.48-1.44-.22.57-1.07,1.11-1.65.94-.3-.09-.31-.59-.43-.67-.18-.12-.65.14-1.08.03-1.16-.31-2.43-1.65-3.26-2.15-.54-.32-1.46.05-1.37-1.27-.34.03-.58.25-.94.13-.2-.07-3.25-2.28-3.5-2.52-.32-.3-.26-.74-.42-.9s-1.79-.94-2.33-1.39c-1.78-1.45-4.44-4.37-5.88-6.12-2.45-2.98-4.18-6.34-6.35-9.49-.11-.33,1.43.23,1.2-.47s-.8.24-1.31.12l-.25-.24c.22-.91-.61-1.52-.93-2.19-.92-1.94-1.85-4.43-2.48-6.4-.16-.5-.08-1.1-.32-1.6h1.92s-.5-1.3-.5-1.3c-1.08-.41-.83.63-1.65.69.08-.44-.31-.77-.38-1.13-.25-1.19-.05-1.13.69-1.51.29-.15.2-.18.17-.48-1.36-.09-1.58-1.48-1.85-2.59-.5-2.04-.07-3.86-.32-5.66-.32-2.36-.49-3.37-.34-5.95.19-3.07.97-5.97,1.23-9,.04-.42-.27-.94-.17-1.36.05-.23.54-.2.69-.57.21-.52.33-2.34.4-2.48.22-.44.92-.33.85-.72l-.49-.13c-.08-.79,1.58-2.43.5-3.11.83-.25.92-1.26,1.3-1.58.6-.5,1.47.1.35-1.05l.51-2.53.72.24-.24-.96c1.43.1.83-1.54,1.67-2.05.92-.55.45.53,1.21.37l-.59-1.44c1.64-2.26,3.1-4.97,4.91-7.08.33-.39.85-1.03,1.13-1.33.81-.85,1-.44,1.65-.5,1.13-.1.1-.94.2-1.17.62-1.43,3.34-3.03,4.1-4.56,1.17-.21,1.49-.95,2.29-1.55.86-.64,3.1-1.56,2.86-2.54,1.55.1,3.07-1.48,4.22-2.13.46-.26,1.06-.28,1.42-.74l1.08.95-.24-1.44c.84-.38,2.37-.7,3.07-1.14.36-.23.56-.77.7-.79.25-.03.58.23,1.04.15.7-.12,2.3-1.19,3.05-1.29.33-.05.55.4.67.4.3.01.46-.8.78-.92.42-.15,1.11,0,1.56-.1,4.55-1.06,7.68-1.78,12.33-1.86.41,0,1.72-.17,1.9-.13.37.07.16.82.7.65l.96-.9c.18.07.36.34.51.34,1.66.09,4.56.24,6.21.56.53.1.71.62.99.67,1.31.24,2.71,0,4.42.4,1.44.35,4.54,1.23,5.76,1.92.64.35.75.3.47,1.09ZM66.32,6.48c-.48-.09-.63.42-1.09.48-.37.05-4.73-.16-5.28-.23-1.05-.14-2.1-2.02-2.64,0-.51-.08-1.16.1-1.63-.02-.19-.05-.15-.49-.27-.48-.34.03-.63.67-.78.71-1.42.4-3.37.09-4.74.75l-.36-.49c.02.25-.04.45-.29.56-2.01.89-5.74,1.35-8.11,2.25-2.17.82-4.41,2.01-6.48,3.07-1.74.89-3.24,2.45-5.28,2.53.5.66-.7,1.47-1.27,1.74-.33.16-.78-.04-.9.05-.22.17-.27.77-.57,1.1-.32.35-2.9,2.52-3.17,2.56s-.54-.18-.81-.18l.48.6c-1.26,1.29-2.54,2.6-3.72,3.96-.4.46-2.09,2.91-2.27,3.01-.23.13-.68-.17-.97-.12l.48.83c-2.09,2.82-3.85,5.9-5.32,9.08-1.75,3.79-2.96,7.88-3.72,12.12-.58,3.21-.92,6.46-.79,9.73l-.97.64h.96c.03,1-.05,2,0,3,.29,5.96,2.29,12.88,4.76,18.29.69,1.5,1.46,3,2.35,4.39l-.63,1.2c.27.16,1.31-.01,1.39.04.31.22,1.89,3.18,2.35,3.79,1.14,1.53,2.75,3.16,3.86,4.41.42.47.73,1.09,1.28,1.49-.42.8-1.58-.49-1.44.6.53.41,1.59-.17,1.68-.13,1.15.48,1.7,1.77,1.91,2.92,1.83-.29,1.89.46,3.02,1.29,3.43,2.52,7.01,4.65,10.44,6.85.25.16,1.67-.03,2.15.36l-.24.95c.67.24.48-.62.82-.67,1.08-.15,1.36.91,1.63,1.11.12.09,2.38.18,3.08.39.93.28,1.83.99,2.87,1.09l-.48,1.44c.99.19.92-.89,1.19-1.1.24-.19,2.2-.2,1.93.62.87-.73,2.44.03,3.51.15.66.07,1.95.31,2.4.32.57.01.82-.47,1.17-.47.29,0,.57.38.91.41,1.87.18,4.62-.11,6.53-.19.94-.04,1.51.52,2.64-.23l.13.49h.48c-.21-1.28,1.22-.81,2.03-.97,4.22-.88,8.5-2.45,12.35-3.95,1.2-.47,2.33-1.34,3.86-1.32l-.15-.73c1.53-.89,3.14-1.94,4.57-3.02.72-.54.5-.58.86-.92.23-.21.85-.22,1.08-.61l.48.72c.61-.39.84-2.25,1.06-2.54.3-.38.68-.09.96-.24.73-.39,1.72-1.54,2.43-2.14,1.25-1.03.49-.54,1.17-1.46.18-.25,1.44-1.06,1.57-1.31.2-.4.07-.88.25-1.2.24-.41,2.22-.83,1.56-2.16l1.68.48.24-.96c-1.8.06.16-1.18.45-1.59.42-.6,2.18-3.73,2.37-4.35.16-.51-.04-1.4.28-1.83.18-.24.67-.12.86-.39,2.19-3.01,4.23-12.84,4.92-16.71.17-.96-.71-2.06.96-2.38v-.6s-.72.48-.72.48c-.04-.89-.2-1.89-.24-2.76-.02-.34.24-.69.22-.98-.02-.39-.45-.56-.47-.94,0-.14.44-.09.49-.28.28-1.04-.41-1.07-.43-1.16-.03-.14.05-2.63.09-2.87.09-.62.3-1.03.59-1.56-1.32-.16-.78-1.93-1.02-2.95-.78-3.35-2.19-7.83-3.49-10.91-1.69-4-4.23-8.13-6.78-11.65-.1-.14-.29-.18-.46-.19l.37-.95c-.32-.58-1.15-.53-1.51-.79-.32-.24-1.91-1.84-1.83-2.28l-4.23-3.99.22-.86c-.43-.08-.88.3-1.27.2-.17-.04-2.56-1.94-2.71-2.11-.5-.6-.27-.76-.1-1.45-1.08-.44-.44.93-1.08.72-.73-.25-3.45-2.34-4.52-2.92-5.98-3.25-12.61-5.3-19.36-6.2l.24-.47ZM113.34,42.51c-.56.01-1.67-1.71-2.14-1.23-.39.39,2.03,2.99,2.14,1.23Z"/>
  <path d="M12.56,96.48l1.21-.12c0,.81.45.61.85,1.07,3.21,3.68,5.93,6.54,9.83,9.61.85.67,2.66,1.54,3.25,2.52.26.43-.37,1.74.94,1.2l-.13-1.07c.93,1.01,2.41,1.36,3.36,2.16.35.29.59.9.64.93.23.13.72-.2,1.17-.11.64.13,1.52.92,2.09,1.28.52.33,1.22,0,1.02,1.01l.6-.71c.58.56,1.39.73,2.03,1.1,1.35.78,1.63.5,3.18.88s3.07,1.22,4.41,1.59c1.71.46,4.13.36,5.68.8.46.13.85.6,1.06.63.38.06.78-.85,1.84-.21.17.1.14.49.29.49.36,0,.82-.49,1.43-.51s1.19.32,1.8.26l-.24.72c.63.15.53-.56.91-.72.24-.1,1.69-.2,2.09-.23,1.74-.12,3.36.12,5.22-.05.3-.03.62-.46.98-.4s.65.67,1.2.62c.39-.04,1-.63,1.6-.43l-.24-.48.86-.16.82,1c0,.31-3.48.84-3.96.85-1.17.05-.49-.47-1.31-.49v.7c-3.78.25-7.87.48-11.65.27-1.08-.06-3.53-.26-4.5-.49-.27-.06-.27-.57-.53-.72-.26.33-.49.47-.92.47-.84,0-6.35-1.34-7.19-1.72-.55-.25-.25-.42-.17-.91-.56-.05-.61.51-1.26.44-.91-.1-4.17-1.55-5.22-2.01-8.24-3.61-15.52-9.03-21.21-15.85-.32-.38-1.58-1.45-1.71-1.77-.09-.23.18-.64.11-.71-.06-.06-.51,0-.7-.15-.9-.67-1.31-2.21-1.94-3.11-.89-1.26-3.14-3.59-3.5-5.15-.08-.35.81-.68-.19-1.62-1.11-1.05-2.22-2.79-2.69-4.39-.15-.51.18-1.38-.09-2-.14-.32-.59.03-.8-.45-.09-.2-.35-1.36-.35-1.57,0-.4.5-.67.42-.78-.02-.03-.43-.01-.7-.38-.52-.74-1.14-2.83-.52-3.68-1.25-.31-.64-.69-.7-1.3-.02-.17-1.36-.74-.24-1-.43-1.12-.7-2.88-.82-4.09-.53-5.05-.49-10.56.22-15.47.07-.5.03-1.02.11-1.53l.73-.15c.18-.66-.41-.44-.72-.84l1.07-1.8c1.31.5.02,3.64-.09,4.7-1.37,12.72,1.08,25.44,7.37,36.5.87,1.53,3.21,4.39,3.69,5.67.24.64.21,1.19.19,1.85Z"/>
  <path d="M91.87,8.53c.66.54.46.97,1.4.62,4.73,3.15,9.14,7,12.89,11.37l-.96.6c.39.22,1.47-.02,1.67.12.35.22,2.66,3.5,3.09,4.13.33.47.83,1.23,1.15,1.72,1.07,1.68,1.97,3.47,2.96,5.2-1.71.52-1.08,1.81.24.36.88,2.24,2.02,4.38,2.82,6.66.57,1.61,1.68,3.78.78,5.34,1.55-.51,1.03,1.14.12,1.67-1.51-.85-.08-3.19-1.58-3.98l.22-.78c-1.31-1.08-1.63-3.52-2.37-5.19-3.79-8.64-11.14-17.92-18.88-23.6-2.15-1.57-4.65-3.21-7.03-4.38.52-2.68,2.21-.88,3.46.14Z"/>
  <path d="M16.24,20.24c-5.47,6.05-9.88,13.73-12.33,21.52-.13.1-.66-.73-.96-.48-.47.41.71.52.72,1.06,0,.28-1.14,4.43-1.33,4.94-.39,1.03-.74.19-1.25-.35.32-.59.62-1.06.19-1.69l.34-.33.6.21c-.08-.32-.45-.44-.47-.83-.01-.21.91-3.5,1.07-3.97.33-.95,1.47-2.42,1.52-2.56.88-2.65,1.05-3.57,2.54-6.1.42-.71-.12-1.5,1.33-.95-.15-.4-.54-.46-.44-1.01.09-.46,1.62-2.66,2.01-3.29.18-.29.61-.51.72-.74.32-.69-.87-1.02,1.07-1.8.28-.11.9-.08.94-.13.07-.08-.04-.79.14-1.18.69-1.54,3.6-3.87,4.92-5.16.92-.9,1.97-3,3.36-2.52l.49-1.8c1.22-.59,2.71-1.43,3.82-2.19.53-.36,1.48-1.34,2.09-1.74.54-.35,1.1-.66,1.65-1l.25,1.45c-2.27,1.34-4.43,2.89-6.48,4.55-2.26,1.84-4.57,3.92-6.52,6.08Z"/>
  <path d="M119.58,66.25l.74.85c-.78,5.02-1.84,9.8-3.67,14.56-.29.75-2.34,5.74-2.6,5.92-.04.03-.69-.41-.93.15-.19.45.49.33.49.48.03.78-4.18,6.97-4.95,8.02-.86,1.15-7.37,8.77-8.11,8.64l-.86-.82c.69-1.03,2.77-1.55,2.15-3l.73.14c.02-1.32,1.76-1.19,2.09-1.64.18-.26.29-1.38.67-1.87.18-.22.48-.01.53-.07.95-1.15,1.71-2.25,2.7-3.4,1.42-1.63,1.18-1.74,2.06-3.46,1.18-2.33,2.78-4.5,3.81-6.96.47-1.14.96-3.12,1.61-4.42.22-.44,1.03-.38.67-1.48l.48.12-.67-1.74c.4-1.04,1.26-1.86,1.53-3.04.3-1.31,0-3.37.39-4.65.1-.34.57-.53.64-.81.12-.49-.7-1.49.5-1.5Z"/>
  <path d="M59.12.48c1.18-1.36,1.43-.73,2.75-.71,2.18.03,4.36-.04,6.45.24,1.78.24,3.07.18,3.52,2.14-.84-.31-1.87-.24-2.7-.49-.21-.06-.18-.46-.33-.48-.35-.04-.88.29-1.4.26-2.11-.11-4.35-.61-6.53-.64-2.81-.04-5.59.47-8.37.64-1.74.11-3.33.4-5.34.87-1.18.28-5.31,1.7-5.97,1.71-.42,0-.56-.54-1.03-.43,0,.23,0,.53-.12.71-.25.35-6.74,2.81-7.85,3.39-.21.11-.24.38-.37.45-.57.31-1.95,1.33-2.19.58l.21-1.17c1.22,0,2.51-1.4,3.41-1.65.48-.13,1.3.16,1.38.09.04-.04-.02-.68.35-.98.33-.26,2.07-.89,2.63-1.21,2.09-1.21,5.11-1.58,7.67-2.22,1.14-.29,3.29-1.11,4.41-1.28.47-.07,1.02.47,1.62.41.65-.06,3.05-.98,3.88-1.2,1.28.5,3.96-.92,3.94.96Z"/>
  <path d="M100.16,105.36c-.23.32-.75.7-1.09.96-3.55,2.76-7.83,6.36-12.19,7.98-.45.17-.87-.08-1.12.04-.29.15-.36.65-.78.93-.54.35-1.45.43-2.01.86l-.45-.46c-.47.96-1.24,1.08-2.16,1.44-2.49,1-5.2,1.54-7.8,2.16l-.12-.97,2.64-1.18.12.95,1.68-.24-.48-.83,1.68-.61-.24-.47,1.92.72c.31-1.59,1.53-1.19,2.42-1.55,3.14-1.27,6.03-3.09,8.9-4.78,1.66-.98,4.43-1.77,4.78-3.75l.72.24c-.59-1.43,2-1.49,2.76-2.4.12-.03.14,1.13.84.96Z"/>
  <path d="M119.9,52.28c.35.82.59,1.63.66,2.81s.14,9.78-.11,10.22c-.05.09-.87-.02-.97.69l-.54-.59c1.07-1.21.22-2.89.17-4.34-.04-1.23.3-3.51.18-4.52-.06-.49-.75-.86-.67-1.46,1-.25.14-.87.25-1.44l.36-.29.6.17v-.72s-.96.24-.96.24c.51-1.17-.19-1.21-.42-1.86-.39-1.13-.14-3.08-.72-4.27l1.38-1.07c.17,1.71.73,3.51.95,5.2.06.48-.21,1.16-.17,1.24Z"/>
  <path d="M86.78,5.96c.16.1.48-.18.67-.08.13.07.74,1.02.71,1.19l-2.11-.03c-1.34-.94-3.99-1.46-5.19-2.27-.23-.15-.38-.42-.38-.7l-.35.47-1.58-.6c-.37-.27.33-1-.35-1.31l-.95.86c-.7.12-.84-.54-.89-.56-.15-.05-.47.18-.73.12-1.37-.35-3.44-.56-3.55-2.34l6.01,1.3c3.35,1.1,5.82,2.17,8.68,3.93Z"/>
</svg>