<?xml version="1.0" encoding="UTF-8"?>
<svg id="_レイヤー_1" data-name="レイヤー 1" xmlns="http://www.w3.org/2000/svg" viewBox="0 0 120 120">
  <path d="M63.6,119.76v-.6l-.36-.36h-.6l.48.96h-11.28v-.48h-.48v.48h-21.6l-.24-.96,1.44-.48c-.68.08-1.57-.23-2.04.24l-12.84-12.6.24-.6c-.26-.04-.62.06-.84,0s-2.46-2.46-2.28-2.64l.72-.48-1.32.24L.48,90.12c-.3-.2-.32-.84-.24-1.2.19-.83-.15-1.63,0-2.64.13-.89.18-2.3,0-3.12-.38-1.7.24-3.81,0-5.76-.17-1.35.23-2.58,0-3.6-.14-.64.21-1.75.72-2.16l-.72-.12c.05-.5-.07-1.08,0-1.56.01-.07.42-.4.24-.84h.48c-.03-.27.05-.6,0-.84-.06-.27-.72-.72-.24-.96-1.05-.91-.25-2.43,0-3.48H.24c.15-1.2-.2-2.82,0-3.96.25-1.43-.08-2.96.24-4.32.13-.55-.48-2.3-.24-3.36.15-.69-.04-.79,0-.96.03-.13.42-.4.24-.84l1.68.48c.24-.9-1.02-.3-1.2-.48v-.48l-.72-.36.96-.36-.48-.48.24-.72h-.48c-.03-.35.05-.75,0-1.08-.13-.8-.11-1.67-.24-2.4-.21-1.16.26-.82,0-1.92-.17-.71.75-1.79-.24-2.64v-.24c.4-.24.17-.61.24-.96.16-.8-.24-1.44.24-2.16l-.48-.96c.03-.1.22-.15.24-.24.11-.47-.12-2.64,0-2.76h.72l-.96-1.32c.44-.27.13-.82.24-1.2l5.52-5.52-.24-.48.36-.36c.23-.04.53.05.72,0,.26-.07,3.65-3.46,3.72-3.72.1-.36-.17-.78.36-1.08l.48.24c.31-.09,1.45-1.66,1.92-1.92.11-.06.32.04.36,0s-.06-.25,0-.36c.3-.54,1.4-1.23,1.8-1.8l.48.48.36-.36c-.08-.77.37-1.78,1.2-1.8l-.24-.84c.38-.62.51-.03.84-.12.12-.04.21-.37.6-.24-.13-.39.2-.48.24-.6.1-.35-.18-.79.36-1.08l.48.24c.39-.28.83-.99,1.2-1.2.11-.06.32.04.36,0s-.06-.25,0-.36c.29-.5.79-.21,1.08-.6l1.08.24-.96-.48c-.11-.46.28-.56.48-.84.23-.33.11-.77.96-.6.45-.98,1.8-2.4,2.64-2.88-.09-.61.06-1.12.6-1.44.27-.16.69-.16.96-.24.16-.05.5-.6.72-.72.11-.06.32.04.36,0s-.06-.25,0-.36c.17-.3.73-.64.96-.96.05-.07.04-.46.36-.6l.72.48c.23-.03.5.04.72,0,1.2-.21,3.32-.48,4.8,0l.72-.48h.72l.72.48c.23-.03.51.05.72,0,3.67-.86,8.34.24,12.24-.24l.96.48c.42-.29,1.38-.63,1.92-.48.21.06.58.78,1.32.48l-.24-.72.6.24.48-.24c.1.03.15.22.24.24,1.08.24,2.9-.18,4.08,0l.36.72h.48l.36-.72.24.24.48-.24.48.48h.48c1.02-1,2.93-.22,4.08-.48.83-.19,1.58.38,2.16.24.37-.09,2.19-.3,2.4-.24.68.21,4.34.16,5.04,0,.89-.2,2.38.15,3.36,0l1.2.72c.55-.74,1.01-.81,1.92-.72l.12.96h.72l.36-.72,1.2-.24.72.48.96-.48.96.24.72-.24c1.05,1.33,3.02,2.64,3.96,3.96.33.47,1.68,1.84,2.04,2.04.66.37,1.09,1.35,1.68,1.68.8.45,1.91,2.17,2.76,2.76l-.48.84h1.32l12.36,12.36-.24.84.84-.24c.09.13.29.24.36.36.36.65,1.73,1.4,2.16,2.16.06.11-.04.32,0,.36s.25-.06.36,0c.46.26.37.72.36,1.2.87-.15,1.55.3,1.44,1.2l.96.24v8.28c-.29.24-.29.24,0,.48v16.92h-.72v.72l.72.36v33.36l-7.56,7.56h-.6v.6l-16.44,16.44c-.38-.05-.41-.02-.36.36l-4.92,4.92h-15.24c.14-.86-.1-.59-.6-.96l.12.96h-2.16l.72-.24-.6-.72-.96.24c-.32-.39-.55-.57-1.08-.48v.72c.52,0,.84-.18.72.48h-7.2ZM38.16.48h-.72v.48h.72v-.48ZM41.52.72h-.48v.24h.48v-.24ZM53.76.72h-.72v.48h.72v-.48ZM67.56.72c-.16,0-.16.24,0,.24s.16-.24,0-.24ZM69.24.72c-.16,0-.16.24,0,.24s.16-.24,0-.24ZM71.4.72c-.16,0-.16.24,0,.24s.16-.24,0-.24ZM83.52.72c-.46-.07-.79.26-.72.72h.72v-.72ZM67.08.96c-.16,0-.16.24,0,.24s.16-.24,0-.24ZM32.76,1.2c-.16,0-.16.24,0,.24s.16-.24,0-.24ZM79.92,1.44h-.48l.36.48h.12v-.48ZM31.68,1.68h-.96c-.22.22.54,1.13.96.96v-.96ZM45.84,1.92l-1.2-.24c.18.22.19.66.36.72.33.12.5.16.72.48l.12-.96ZM54,2.88l-.24-1.2c-.53.24-.72.91-1.44.72-.32.28-.03.46.36.48.44.02.88-.01,1.32,0ZM63.36,1.68h-.48v.48h.48v-.48ZM74.16,1.68c-1.62-.12-.05.85.24,1.44-1-.11-2.29.16-3.24,0-2.02-.34-5.42.14-7.44,0H31.32l-13.68,13.44c-.37-.53-.58.05-1.08,0l.72.6-4.92,4.92c-.59-.08-1.15.16-1.56.6l.48.12v.36L3.12,31.32v14.76h-.48v.96h.48v33.12h-.36l-.6.48h.96v.96l-.96.36c.36.47.49.43.96.12v6.12c.08.29,2.03,1.87,2.4,2.4.76,1.08,3.23,2.74,3.84,3.84.43.77,2.37,1.96,2.88,2.88.1.17-.21.46.36.36.5.78,3.81,3.43,3.96,3.96.04.14-.03.32,0,.48l-.96.72.24.84c1.03.18.04-.76.24-.96l1.08-.48,8.52,8.52-.24,1.08.84-.48c.8,1.02,2.29,1.99,3,3,.04.05-.04.18,0,.24.29.45,1.1.37.96,1.08l-.84-.48c-.32-.08-1.49.82-1.32.96.44-.06.63.37,1.08.24.19-.05.17-.45.48,0l1.2-.48c.26.16.77.91.96.96.54.15,1.54-.07,2.16.24l.36.72h.48l.36-.72c.39.16.63-.22.72-.24.59-.14,1.16.09,1.08.72.47.18,1.12-.66,1.32-.72.15-.04.34.05.48,0s.2-.37.6-.24v.48c.44.18.77-.23.84-.24,1.88-.28,4.76.33,6.24,0,2.16-.48,4.97.45,6.96,0,.91-.2,5.41-.19,6.24,0,.91.2,1.01-.2,1.92,0,.67.15,1.56-.23,2.16.48l.72-.48.72.48c1.36-1.02,3.19-.17,4.56-.48.19-.04.75-.04.96,0,.16.03.56.59.96,0l.72,1.2c.95-.13.28-.57.36-.84l.84-.36c.49.47,1.29.34,1.68-.24l1.92.48.24-.24.48.48c.48-.83,1.36-.19,1.92-.72h.48c1.21.75,2.38.16,3.6.48.24.07.52-.12.72.24l.96-.72h.72l.72.48c.44-.51,1.4-.34,1.92-.48.12-.03,1.72-1.65,1.8-1.8.06-.11-.04-.32,0-.36.06-.06,1.19-.57,1.44-.48-.18-.51.65-1.44,1.08-1.68.56-.31.64-.89,1.2-1.2.67-.37,1.06-1.52,2.04-1.68v-.72c1.67-.46,1.24-2.14,3-2.64.09-.03.86-.71,1.08-.84l-.24-.72.36-.36.48.24,1.56-1.56-.24-.48c.3-.53.72-.26,1.08-.36.45-.12,3.4-3.6,4.08-4.08,1.39-.98,2.56-3.31,4.2-3.6-.16-.88.84-1.08.96-1.2.04-.04-.06-.25,0-.36.1-.19,2.35-2.47,2.52-2.52l1.32.24-.72-.6c-.12-.43.88-.91.96-1.2.07-.24-.12-.52.24-.72-.24-.71-.42-2.32-.24-3.12.24-1.07-.01-1.97.24-3.36.15-.81-.34-1.7-.48-2.4-.05-.25.03-.57,0-.84h.48l-.24-1.08.48-.12-.48-1.08c.45-.68.13-2.04,0-2.64-.11-.5.08-1.26,0-1.8h.72c-.17-.39-.54-.79-.96-.72-.16-.84.38-1.46.24-2.28-.19-1.12.15-3.13.24-4.32l-.48-.96.72-.96c-.97-.62-.06-1.16-.24-1.92-.26-1.13.04-1.78-.24-2.64-.03-.1-.21-.15-.24-.24l.48-1.2c-.45-.52-.38-1.51.24-1.92v-.48l-.48-.48.48-.72c-.83-.58-.38-1.7-.48-2.64l.36-.36h1.08l-.36-.72c-1.22.12-.92-.31-1.08-1.08-.02-.09-.21-.14-.24-.24-.09-.32.22-.38.24-.48.16-.72-.29-1.85.24-2.4l-.24-.48.48-.48c-.98-1.29-.17-2.96-.48-4.32-.25-1.11.27-2.42,0-3.6-.13-.56.2-1.49,0-2.4-.1-.47.12-1.25,0-1.68-.07-.26-1.23-1.06-1.44-1.44-.42-.75-1.92-1.42-2.16-2.52h-.48l-.24-.96c-.87.15-1.29-.81-1.92-1.32l.24-.84-.6.24c-.45-.29-2.89-2.39-3-2.76-.05-.16.03-.41,0-.6-1.26.18-2.31-2.2-3-2.64-2.55-1.63-4.94-5.36-7.2-6.96-.99-.7-1.86-2.21-2.64-2.64-1.01-.56-1.86-2.21-2.64-2.64-.66-.37-1.09-1.35-1.68-1.68s-1.4-1.59-2.04-2.04l.24-.6h-.72v.72h-12.72c.11-.64-.83-.8-.72-1.44ZM70.32,2.64h.36l.36-.36-.36-.36h-.36v.72ZM76.8,1.92h-.48v.24h.48v-.24ZM28.92,2.16c-.16,0-.16.24,0,.24s.16-.24,0-.24ZM34.56,2.4h-.48v.48h.48v-.48ZM61.08,2.4c-.16,0-.16.24,0,.24s.16-.24,0-.24ZM72.12,2.64c-.16,0-.16.24,0,.24s.16-.24,0-.24ZM28.56,4.8l-.36-.48-.36.36v.12h.72ZM26.76,4.56c-.16,0-.16.24,0,.24s.16-.24,0-.24ZM97.2,8.88v-.72h-.12l-.36.36v.36h.48ZM18,15.6h-.48v.24h.48v-.24ZM107.16,18.48c-.16,0-.16.24,0,.24s.16-.24,0-.24ZM12.12,18.72c-.16,0-.16.24,0,.24s.16-.24,0-.24ZM105.84,18.96h-.96v.12c.26.37.51.41.96.36v-.48ZM11.52,20.88l.48-.36-.36-.36h-.12v.72ZM108.48,21.6h-.72v.24h.72v-.24ZM8.16,25.44c-.45.03-.68-.37-1.2-.24v.48h1.2v-.24ZM2.88,29.76l-.84.24-.36-.24v.48h1.2v-.48ZM2.04,33.6c-.16,0-.16.24,0,.24s.16-.24,0-.24ZM119.28,44.4v-.6l-.36-.36h-.6l.24.96h.72ZM118.08,45.12v-.72h-.24v.72h.24ZM119.28,51.6h-.36l-.36.48h.72v-.48ZM1.08,56.4c-.16,0-.16.24,0,.24s.16-.24,0-.24ZM1.68,62.64h-.72v.72c.46.07.79-.26.72-.72ZM2.52,63.36c-.16,0-.16.24,0,.24s.16-.24,0-.24ZM118.32,63.6h-.96v.24h.96v-.24ZM117.72,75.36c-.16,0-.16.24,0,.24s.16-.24,0-.24ZM2.4,77.04v-.48h-.24v.48h.24ZM2.4,78.24h-.48v.24h.48v-.24ZM119.16,78.24c-.16,0-.16.24,0,.24s.16-.24,0-.24ZM1.92,80.4h-.6l-.36.36.72.36.24-.72ZM118.56,84.96h-.48v.36l.36.36h.12v-.72ZM2.64,89.28h-.72v.48h.36l.36-.48ZM119.04,89.52h-.48v.24h.48v-.24ZM4.08,90.72c-.46-.07-.79.26-.72.72h.72v-.72ZM8.4,96.48h-.48v.48h.48v-.48ZM13.2,100.8h-.72v.48h.72v-.48ZM18.72,105.12v-.48h-.24v.48h.24ZM102.96,105.6c-.63.08-.86-.74-1.44-.96-.13.47.47,1.57.84,1.68.12.04.6.08.6-.12v-.6ZM17.28,104.88h-.48v.24h.48v-.24ZM21.36,108.96c-.46-.07-.79.26-.72.72h.72v-.72ZM98.16,109.92v-.72h-.24v.72h.24ZM24.96,111.84h-.48v.24h.48v-.24ZM25.92,113.28h-.48v.72h.48v-.72ZM32.16,117.36h-.48v.24h.48v-.24ZM39.12,117.84l-.48-.48v.48h.48ZM57.96,117.6c-.16,0-.16.24,0,.24s.16-.24,0-.24ZM60.72,118.32c.15-.3-.38-.84-.48-.72-.15.3.38.84.48.72ZM78.24,117.6c-.64-.11-.38.13-.6.48-.14.24-.48.29-.36.72l1.68-.6-.72-.6ZM89.52,118.8l.96-.6-1.44-.6.48,1.2ZM44.16,117.84h-.48v.48h.48v-.48ZM55.68,117.84h-.72c.08.28.34.36.24.72h.48v-.72ZM69.6,117.84h-.6l-.36.36.6.36.36-.72ZM58.32,118.32l-1.44-.24v.72l1.44.24v-.72ZM84.96,119.28c.13-1.38-1.21-1.11-1.92-.36h.72l1.2.36ZM65.28,118.56h-.96v.72c.33-.19.55-.31.96-.24v-.48ZM82.8,118.8h-.48v.48l.48-.48ZM32.88,119.52v-.48h-.24v.48h.24ZM48.48,119.04h-.72v.48h.72v-.48ZM81.72,119.28c-.16,0-.16.24,0,.24s.16-.24,0-.24Z"/>
  <path d="M87.84,5.28v.96l.48-.24.12.48.6-.48v.48c.63-.11.62.46.96.84l-.36.6-.6-.24.24.72c-.43.07-.53,0-.84-.24-.41-.32-1.1-.96-1.08-1.44h-1.92c-.13-.39.19-.46.24-.6s-.04-.33,0-.48c.01-.04.56-.59.6-.6.58-.16,1.07.18,1.56.24Z"/>
  <path d="M105.24,23.04c.9-.25,1.4.7,1.8,1.32l-1.08,1.08c-.24.07-1.04-.71-1.08-.84-.07-.24.12-.52-.24-.72l.6-.84Z"/>
  <path d="M6.72,58.56v1.92h-1.32l-.36-.36-.24-1.56c.49-.03.78-.36,1.32-.24.11.02.21.37.6.24Z"/>
  <path d="M18,100.8c.76.16,1.06-.53,1.56-.96l1.32,1.32c-.47.37-.94,1.26-1.56,1.08-.18-.05-1.15-1.15-1.32-1.44Z"/>
  <path d="M6.72,84.48h-1.68c.12-.72-.36-1.2-.24-1.92.67-.04,1.34.16,1.92-.24v2.16Z"/>
  <path d="M31.08,111.36c.31.38,1.01.74.84,1.32l-.84.84c-.51.15-.98-.46-1.32-.84-.18-.19-.56-.41-.48-.72l1.08-.12.72-.48Z"/>
  <path d="M6.72,70.32v2.16h-1.44c.04-.64-.38-1.09-.24-1.8.4-.58,1.07-.31,1.68-.36Z"/>
  <path d="M26.88,109.2l1.32-.72,1.08,1.32-1.32,1.08c-.45-.54-1.24-.88-1.08-1.68Z"/>
  <polygon points="51.84 5.04 51.84 6.72 49.68 6.72 49.92 6.12 49.68 5.64 50.28 5.04 51.84 5.04"/>
  <path d="M107.28,26.88c.7.07.85-.93,1.56-.72l1.08,1.08-1.32,1.08-1.32-1.44Z"/>
  <path d="M11.76,24.96c.25-.23,1.54,1,1.44,1.32-.82.81-1.72,2.22-2.4.48l1.2-1.2-.24-.6Z"/>
  <path d="M75.84,5.04v1.68h-2.4c.07-.68.71-.87.48-1.68l.6.24.24-.24.24.24.84-.24Z"/>
  <path d="M87.6,113.04l-.48-.12c.31-.46.7-.38,1.2-.36l.12-.96,1.32,1.08-1.56,1.56c-.41-.38-.72-.6-.6-1.2Z"/>
  <polygon points="13.8 94.32 15.12 95.4 14.04 96.72 12.72 95.4 13.8 94.32"/>
  <path d="M59.76,5.04v1.68h-1.92l-.24-1.44c.49-.03.78-.37,1.32-.24.19.04.26.49.84,0Z"/>
  <path d="M6.72,46.32v2.16h-1.44c-.13-.66-.58-1.39.12-1.92l1.32-.24Z"/>
  <path d="M94.32,14.16c.23-.7-1.13-.75-.96-1.32.87-1.03,1.85-1.19,2.4.24-.28.24-1.16,1.36-1.44,1.08Z"/>
  <path d="M28.56,9.36c-.12-.6.19-.82.6-1.2l.84,1.32-1.32,1.32-1.08-.84c.32-.29.5-.69.96-.6Z"/>
  <polygon points="114.72 39.12 114.72 41.28 113.28 41.28 113.04 40.2 113.64 39.12 114.72 39.12"/>
  <path d="M102.84,97.44c1.25,1.01.97,1.34-.12,2.28-.17.15-.31.45-.6.36l-.84-.84c.18-.41,1.12-.69,1.2-.96.08-.28-.09-.59.36-.84Z"/>
  <path d="M100.2,17.28c1.38,1.16,1.38,1.48,0,2.64l-1.32-1.32,1.32-1.32ZM100.56,18.48h-.72v.48h.72v-.48Z"/>
  <path d="M6.72,34.32v2.16h-1.68l.24-.6-.48-1.32c.31.07.31.42.6,0l.6.48c-.08-.42.24-.79.72-.72Z"/>
  <path d="M6.72,62.4v1.92h-1.32l-.36-.36c-.16-.52.57-.83,0-1.2l.6-.6,1.08.24Z"/>
  <path d="M10.8,93.84c.1-.67-.93-.85-.72-1.56.1-.33.84-.6,1.08-.84l1.08,1.32c-.25.2-1.16,1.36-1.44,1.08Z"/>
  <path d="M15,22.56c1.47.57.75,1.29-.12,2.04-.17.15-.31.45-.6.36-1.33-.98-.05-1.53.72-2.4Z"/>
  <path d="M39.84,5.04v1.68c-.72-.09-1.67.28-2.16-.36.42-.31.07-1.17.6-1.32.65-.18,1,.5,1.56,0Z"/>
  <path d="M102.48,21.84c-.29.08-.66,0-.48-.36.29-.57.53-.77,1.08-1.08l1.08.84c.23.82-1.6,2.14-1.68.6Z"/>
  <path d="M23.04,15.36l-.24-.6.6-1.08,1.08,1.32c-.52.39-1.14,1.51-1.8,1.32-.83-.24-.72-1.7.36-.96ZM22.68,15.6c-.16,0-.16.24,0,.24s.16-.24,0-.24Z"/>
  <path d="M83.76,4.8v1.92h-1.92l-.24-.6c.26-.11.2-.42.24-.48.36-.55.69-.26,1.08-.36.2-.05.38-.65.84-.48Z"/>
  <path d="M111.6,29.04l-.12-.48,1.32,1.32-1.32,1.32-1.08-1.08c.34-.45.55-1.15,1.2-1.08Z"/>
  <path d="M6.72,78.48v1.92h-1.68c-.17-1.4.18-2.12,1.68-1.92Z"/>
  <path d="M6.72,54.72v1.68h-1.92l.48-.6-.24-.72c-.08-.21.24-.57.36-.6.53-.14.86.23,1.32.24Z"/>
  <path d="M16.92,97.2l1.08,1.08c-.47.37-.94,1.26-1.56,1.08l-.84-1.08,1.32-1.08Z"/>
  <path d="M67.68,6.72h-1.92c-.07-.78-.05-1.21.6-1.68,1.43-.19,1.4.43,1.32,1.68Z"/>
  <path d="M24.96,108v-.48c-.33.13-1.06-.51-.96-.84l1.32-1.08.6.6-.24.48.24.72c-.32.29-.5.69-.96.6Z"/>
  <polygon points="6.72 74.4 6.72 76.32 5.04 76.32 5.28 75.48 5.04 74.76 5.4 74.4 5.64 74.64 6.72 74.4"/>
  <path d="M62.64,114.72h-2.28c-.2,0-.16-.48-.12-.6.05-.18.69-.6.84-.84h.96c.54.42.7.74.6,1.44Z"/>
  <path d="M23.52,103.68c.15.72-.42.98-.84,1.44-.37.19-1.26-.63-1.32-.84-.2-.68.46-.76.84-1.08l1.32.48Z"/>
  <path d="M114.72,65.28h-1.2l-.24-.6.24-.96-.24-.24c.45-.53.89-.95,1.44-.24-.03.31.05.67,0,.96-.02.09-.23.16-.24.24,0,.04.43.42.24.84Z"/>
  <path d="M6.72,50.4v1.92h-1.92c.4-.45.05-1.53.6-1.68.2-.06.51.05.72,0,.11-.03.21-.37.6-.24Z"/>
  <polygon points="114.72 59.28 114.72 61.2 113.04 61.2 113.04 59.88 113.88 59.28 114.12 59.52 114.72 59.28"/>
  <polygon points="6.72 66.48 6.72 68.4 5.04 68.4 5.04 67.08 5.4 66.72 6.72 66.48"/>
  <path d="M19.92,19.2v-.48l-.72-.36c.82-.81,1.72-2.22,2.4-.48-.32.26-1.39,1.61-1.68,1.32Z"/>
  <path d="M63.84,5.28v1.44h-1.92l-.24-1.08.6-.6.24.24.48-.24.84.24ZM62.64,6.48v-.48l-.48.36v.12h.48Z"/>
  <polygon points="79.68 5.04 79.68 6.72 77.76 6.72 78 6.12 77.76 5.88 78.36 5.04 79.68 5.04"/>
  <path d="M91.44,11.28c.12-.65-.14-.37-.48-.6-.88-.61.49-1.18.84-1.56l1.08,1.08c-.24.2-1.17,1.36-1.44,1.08Z"/>
  <polygon points="26.28 11.28 27.36 12.12 25.8 13.68 24.96 12.6 26.28 11.28"/>
  <path d="M8.16,89.52l.12-.96c.37.47,1.26.94,1.08,1.56l-.84.84c-.58.17-.94-.53-1.32-.84.32-.29.5-.69.96-.6Z"/>
  <path d="M114.72,69.12c-.35-.03-.74.05-1.08,0-.86-.12-.6-.74-.36-1.32.07-.16.09-.53.36-.6,1.31-.36,1.12,1.01,1.08,1.92Z"/>
  <path d="M18.72,20.88h-.48c.08.54-.51.8-.84,1.2l-.84-.6c.11-.93.95-1.24,1.56-1.8.41.38.72.6.6,1.2Z"/>
  <path d="M35.76,5.04v1.68h-1.92c-.04-.51.53-.71,0-1.08.25-.46.57-.28.84-.36.1-.03.15-.22.24-.24.25-.05.57.03.84,0Z"/>
  <path d="M71.76,6.72h-1.92l.24-1.32c1-.98,1.94.09,1.68,1.32Z"/>
  <path d="M74.64,113.28v1.44c-.36.13-.56-.24-.6-.24-.08,0-.15.22-.24.24-.4.07-.9-.04-1.32,0l.24-1.44h1.92Z"/>
  <path d="M55.68,5.28v1.44h-1.92l.24-.6-.24-.48c-.07-.21.23-.56.36-.6.41-.12,1.02.44,1.56.24Z"/>
  <path d="M105.36,96.48v.72c-.47.09-.66-.33-.96-.6,0-.07.19-.13.24-.24.07-.15.17-.61.24-.72.26-.41.73-.56,1.08-.84l.84.84c-.47.44-.73.99-1.44.84Z"/>
  <path d="M114.72,75.36v1.92h-1.44l.24-1.08-.24-.72c.42-.6.48-.13.6-.12.28.02.56-.01.84,0Z"/>
  <polygon points="114.72 47.28 114.72 49.2 113.28 49.2 113.28 47.64 113.64 47.28 114.72 47.28"/>
  <path d="M8.64,29.28s-.02-.57.36-.72l.48.24.84.12c.06.25-1.17,1.52-1.32,1.56-.68.2-.76-.46-1.08-.84.14-.37.69-.33.72-.36Z"/>
  <path d="M6.96,31.68c.29-.08.66,0,.48.36s-1.04.91-1.32,1.32l-.84-1.08,1.32-1.32.36.72Z"/>
  <path d="M114.72,81.12h-1.44l-.24-1.2h.48v-.72c1.49-.22,1.21.75,1.2,1.92Z"/>
  <path d="M100.2,100.56c.46-.15.59.64.84.84-.25.25-.32.52-.6.12l.12.36-1.08,1.08c-.32-.33-.75-.57-.6-1.08.03-.09,1.23-1.29,1.32-1.32Z"/>
  <polygon points="46.56 113.28 46.56 114.72 44.64 114.72 44.88 114.12 44.64 113.64 45 113.28 46.56 113.28"/>
  <path d="M47.76,5.28c.13.37-.24.53-.24.6,0,.04.43.42.24.84h-1.68l-.24-.6.24-1.08.6.24.24-.24.84.24Z"/>
  <path d="M114.72,51.36v1.92h-1.44v-1.56l.6-.6.84.24ZM114.24,53.04v-.96h-.24v.96h.24Z"/>
  <polygon points="94.44 106.32 95.28 107.16 93.72 108.48 93.12 107.88 94.44 106.32"/>
  <path d="M97.08,15.12c.51-.14,1.2.2,1.56.6l-1.32,1.32c-.5-.56-1.2-.79-.6-1.56.07-.09.31-.35.36-.36Z"/>
  <path d="M96.72,105.12l.36.24-.48.48-.84-1.08,1.8-1.32.6.84c-.38.62-1.23.07-1.44.84Z"/>
  <path d="M38.64,113.76v.96h-1.92c-.07-.42-.52-1.26.12-1.44.44-.12,1.3.5,1.8.48Z"/>
  <path d="M43.68,5.04v1.68c-.66-.07-1.48.25-1.92-.36l.24-.84c.76.19.9-.65,1.68-.48Z"/>
  <path d="M114.72,83.28v1.92h-1.44c.02-.54.55-.91,0-1.32l.36-.6h1.08Z"/>
  <path d="M114.72,55.2v1.92h-1.44l.24-.6c-.72-1.04.07-1.5,1.2-1.32ZM114.36,56.4c-.16,0-.16.24,0,.24s.16-.24,0-.24Z"/>
  <polygon points="49.68 113.52 49.68 114 50.64 113.76 50.64 114.72 48.48 114.72 48.24 113.04 49.68 113.52"/>
  <polygon points="6.72 38.64 6.72 40.32 5.04 40.32 5.04 39.24 5.4 38.88 6.72 38.64"/>
  <path d="M114.72,45.12h-1.44c.07-.66-.25-1.48.36-1.92l1.08.6v1.32Z"/>
  <path d="M86.16,113.52v.48h.36l.12.72h-2.16c-.13-.46.15-1.31.6-1.44s.66.31,1.08.24Z"/>
  <path d="M6.72,86.4v1.44l-1.44.24c.07-.49-.16-.94-.48-1.32.44-.61,1.26-.29,1.92-.36Z"/>
  <path d="M111.48,89.28l.84.6-.84,1.08c-.5-.4-1.13-.09-1.56-.84.43-.75,1.06-.44,1.56-.84Z"/>
  <path d="M114.72,71.28v1.92l-.36-.48c-.31.39-.55.58-1.08.48-.14-1.21.07-2.09,1.44-1.92Z"/>
  <path d="M78.48,113.28v1.44h-1.92l.24-1.2c.64.14,1.06-.3,1.68-.24Z"/>
  <path d="M32.4,5.76c.05.5-.53.71,0,1.08l-1.08,1.08c-1.32-.9-.08-1.94,1.08-2.16Z"/>
  <path d="M34.56,114.72h-1.92l.24-1.2c.46-.01.79-.38,1.32-.24.47.13.36,1.03.36,1.44Z"/>
  <polygon points="54.48 113.28 54.48 114.12 54 114.24 54.48 114.72 52.56 114.72 52.8 113.52 54.48 113.28"/>
  <path d="M5.76,42.72c-.1.7.12.37.36.48.16.07.2.36.6.24v.96h-1.68v-1.32l.72-.36Z"/>
  <polygon points="42.48 113.28 42.48 114.72 40.56 114.72 40.8 113.52 42.48 113.28"/>
  <path d="M109.44,92.64c.1.41-.16.48-.36.72-.38.45-1.07,1.39-1.56.6-.14-1.33.85-1.43,1.92-1.32Z"/>
  <path d="M66.48,113.28v1.44h-1.92c.26-.35.22-1.1.6-1.2.2-.06.51.05.72,0,.11-.03.21-.37.6-.24Z"/>
  <path d="M58.56,114.72h-1.92l.24-1.2,1.08-.24c.54.42.7.74.6,1.44Z"/>
  <path d="M114.24,88.08l-.48-.48.36.72-.48.48-.84-.84c.31-.36.81-.58.72-1.08,1.05-.23,1.77.63.72,1.2Z"/>
  <path d="M70.56,113.52l-.48.24v.48l.48.48h-1.92l.48-.6c.06-.21-.47-.68.12-.84.53-.14.85.23,1.32.24Z"/>
  <path d="M114.72,36h-.48c.09.81-.04,1.32-.96,1.2l.24-.6-.24-.24.24-1.08.84-.24c.37.26.41.52.36.96Z"/>
  <path d="M82.56,113.52v1.2h-1.92v-.84l.6-.36c.35.43.88.28,1.32,0Z"/>
  <path d="M92.64,109.68l-1.68,1.68c-.05-.5.53-.71,0-1.08l.48-1.08,1.2.48Z"/>
  <path d="M114.72,33.12c-.35.04-.49-.16-.84-.24-.19-.04-.85.13-.6-.36.1-.19.84-.91,1.08-.84l.36,1.44Z"/>
  <path d="M91.32,113.52c.16,0,.16.24,0,.24s-.16-.24,0-.24Z"/>
  <path d="M91.8,113.04c.16,0,.16.24,0,.24s-.16-.24,0-.24Z"/>
  <path d="M111.24,88.8c.16,0,.16.24,0,.24s-.16-.24,0-.24Z"/>
</svg>