<?xml version="1.0" encoding="UTF-8"?>
<svg id="_レイヤー_1" data-name="レイヤー 1" xmlns="http://www.w3.org/2000/svg" viewBox="0 0 120 120">
  <path d="M55.76.48l.13-.73L61.39-.01l.25.73.72-.74c.77-.11,1.06.5,1.44.5s.71-.59,1.19-.5c4.94.46,10.79-.57,15.63,0,.6.07.91.54,1.41.5.67-.05,2.85-1.48,2.3.47.13.16,1.04-.76,1.2-.83.3-.13,2.61-.13,3.23-.14,1.32-.01,2.84.2,4.05.17,1.65-.04,3.3-.95,4.72.56l.23-.61c.42-.31,5.54-.11,6.58-.14.31,0,.62-.22.98-.21.79.03,1.54.81,2.61.26l2.46,2.38-.14.71.61-.15,1.45,1.35-.14.71.61-.15c.28.03,3.59,3.39,3.96,3.86.18.23.17.54.28.79,1.28.26,1.77,1.62,2.78,2.38l.05,13.39c-.06.34-.97-.26-.73.73l.73.25v29.02s-.74.25-.74.25l.68.64.04,51.44-11.92,12.08h-33.15s-.76-.92-.76-.92l.24.96h-2.4s.96-.24.96-.24c-.43-1.18-1.21-.38-1.75-.51-.29-.07-.41-.51-.77-.45l.03.5.81.7H28.76c-.31-.06.15-.39.24-.47.45-.4,1.02-.8,1.67-.73.4-.31-.31-.28-.49-.25-.73.1-1.1.35-1.76.52l-.03.93h-3.69s-.27-.48-.27-.48h-.36s-.35.5-.35.5l-11.54-.02L-.05,107.75c.11-.84.09-1.67.13-2.52.15-4.02-.36-8.2.26-12.25l-.52-.48.51-1.65-.52-.27c.36-2.43.27-4.96.27-7.43,0-4.45-.06-8.97,0-13.42.02-1.92-.41-4.01.71-5.65l-.74-.13-.24-5.74.48-.23c-.2-1.15-.22-2.67-.23-3.86,0-.65-.2-3.61.37-3.72l1.56.36-1.89-.87-.23-2.34.68-.39c-.24-.35-.56-.9-.62-1.31-.12-.82-.01-3.11.14-3.96.07-.38.5-.67.45-.92-.06-.31-.66-.62-.67-1.23,0-.5.43-1.18.44-1.71.02-.62-.36-1.51-.39-2.18-.13-3.12.29-6.49.32-9.6.02-1.72-1.03-4.28,1.04-5.24,0-.15-1.15-.43-1.21-1.21-.02-.3.19-.61.16-.91-.05-.61-.37-1.42-.36-1.96s.41-1.17.43-1.7c.02-.59-.33-2.42-.11-2.97.04-.09.9-1.62.96-1.69.26-.3.8-.21,1.21-.47.15-.1,1.61-1.58,1.67-1.7.14-.29-.22-.83.35-1.06.19-.08.51.14.72,0,.19-.13.28-.51.5-.71.59-.54,1.22-.84,1.46-1.78.95-.03,1.65.43,2.6-.04.26-1.14-1.39.44-1.44-.59L12.49.03c.93.3,1.57,0,2.35-.03,6.85-.27,13.67.14,20.44-.16.65-.03,2.09-.13,2.6-.1.58.03.82.47,1.2.51.94.09,3.23-.51,4.29-.47,1.16.04,2.61.31,3.86.34,1.65.04,3.93-.36,5.32.34,1.07-.72,2.09-.53,3.19.03ZM38.24.48h-.72s0,.48,0,.48h.36s.36-.48.36-.48ZM92.48.96l-.48-.48v.48s.48,0,.48,0ZM28.16.72h-.48v.48h.48v-.48ZM53.84.72h-.72v.48h.72v-.48ZM83.6.72h-.48s-.24.72-.24.72l.48-.12.24-.24v-.36ZM22.4,1.44v-.48h-.24v.48h.24ZM67.16.96v.24c.16-.08.16-.16,0-.24ZM80,1.44h-.48v.24h.48v-.24ZM94.88,1.44h-.48v.24h.48v-.24ZM45.92,1.92l-.96-.24v.72s.96,0,.96,0v-.48ZM8,111.12c.15.17.6.32.72.6.24.55-.58.17-.48.6.34,0,.7-.05,1.04.04.89.26,3.45,3.88,4.48,4.4.56.28,1.34.03,1.99.17,1.46.32,1.42.24,2.88.11,1.22-.11,2.5-.07,3.66-.38l.23.48c3.07-.49,6.28-.4,9.35-.25.59.03,1.93-.15,2.3.11l.35.61c.44.05.58-.55,1-.68.35-.11,1.24-.14,1.53.07l.35.6c.98-1.34,1.91-.73,3.11-.71,6.88.13,13.86-.25,20.65-.22.93,0,2.09.58,2.68.65.28.03,2.28-.44,3.31-.43,1.72,0,3.45-.03,5.17-.01l.12,1.2.23-.96c.53-.62,1.36.07,1.92.01.37-.04.59-.46.95-.47.58-.02,1.76.43,2.41.43.69,0,1.73-.47,2.38-.43.96.05,1.41.21,2.66.21,5.65-.02,11.51.07,17.28.02l6.45-.05c1.31-1.16,2.51-2.44,3.75-3.68,1.64-1.65,3.22-3.48,4.91-5.15.48-.47,1.58-.83,1.57-1.68l-.48.13c.83-.74.19-2.08.3-2.61.52-2.62.19-6.5.19-9.41,0-4.72.15-9.6,0-14.39-.01-.41-.26-.82-.26-1.21,0-.68.8-.98.3-1.77l.44-.03c-.76-.67-.24-1.02-.28-1.56-.09-1.25-.34-2.53-.22-3.83l.73-.13-.97-.88c-.12-.5.22-1,.24-1.43.14-3.63.09-7.11.02-10.78,0-.35-.23-.69-.23-.98,0-1.75.59-3.07.44-4.75-.08-.91-.42-1.88-.18-2.88l.35-.37,1.06.1-1.33-.83c-.52-.76-.01-3.71.05-4.73l-.17-10.27.25-5.54.72.13c.22-.76-.6-.33-.86-.7-.4-1.47-.1-2.96-.09-4.45,0-2.8.08-5.64-.16-8.42l.63-.83c-.82.19-.69-.34-1.07-.73-2.56-2.64-5.24-5.17-7.83-7.78l-.23-1.1-.71.14-1.57-1.33h-17.88s.24-.72.24-.72l-.88.73h-12.64s-.76-1.45-.76-1.45l-.6.36.84,1.08-49.21.02-.83-.74.12.72-4.82.02-.35-.49h-.47s-.15.48-.15.48l-5.37.11L3.43,13.07l-.22,10.77-.73.64.72-.12.02,21.38c-.04.37-1.19.76-.09,1.11l.08,32.96-.74.83c1.29-.21.79,1.11,0,1.32l.73.25-.03,23.52.24.72c1.56,1.52,3.12,3.04,4.57,4.67h-.48s0,.72,0,.72l.48-.36v-.36ZM93.68,2.16l-.48-.48v.48s.48,0,.48,0ZM31.76,1.92l-.72.12.36.36h.36s0-.48,0-.48ZM63.08,1.92v.24c.16-.08.16-.16,0-.24ZM71.12,2.4l-.48-.48v.48s.48,0,.48,0ZM54.08,2.64l-.36-.48h-.36s0,.48,0,.48h.72ZM34.64,2.4h-.48v.48h.48v-.48ZM52.88,2.88v-.48h-.24v.48h.24ZM102.32,2.88l.72-.36-.11-.11-.6.24v.24ZM103.64,2.4v.24c.16-.08.16-.16,0-.24ZM110.96,5.04l-.12-.48-.36.48h.48ZM116,9.12v-.48h-.24v.48h.24ZM1.76,12.24h-.48s0,.48,0,.48l.48-.48ZM2.48,14.16h-.48v.24h.48v-.24ZM118.4,18.72v-.48h-.24v.48h.24ZM118.28,20.64v.24c.16-.08.16-.16,0-.24ZM118.16,27.12v.36s.84.6.84.6l.36-.6-1.2-.36ZM119.36,29.28h-.48v.24h.48v-.24ZM2.96,29.76l-1.2.24v.24s1.2,0,1.2,0v-.48ZM.68,32.4v.24c.16-.08.16-.16,0-.24ZM119.36,43.68l-.96-.24v.36s.6.6.6.6l.36-.72ZM1.28,48.72h-.48v.48h.48v-.48ZM119.36,51.6h-.48v.48h.48v-.48ZM1.16,56.4v.24c.16-.08.16-.16,0-.24ZM1.52,62.88h-.48v.48h.48v-.48ZM118.16,63.6h-.48v.24h.48v-.24ZM1.04,69.12l-.12-.96-.36.36v.6s.48,0,.48,0ZM.92,71.52v.24c.16-.08.16-.16,0-.24ZM2.36,76.8v.24c.16-.08.16-.16,0-.24ZM2.36,78.24v.24c.16-.08.16-.16,0-.24ZM1.76,80.4h-.48v.48h.48v-.48ZM118.64,85.68v-.72h-.24v.72h.24ZM2.48,89.52h-.48v.24h.48v-.24ZM119,89.52v.24c.16-.08.16-.16,0-.24ZM2.24,91.92h-.36s-.36.48-.36.48h.72s0-.48,0-.48ZM119.36,92.88v-.48h-.24v.48h.24ZM118.88,97.92l-1.44.48,1.19.23.25-.71ZM.92,99.36v.24c.16-.08.16-.16,0-.24ZM119.48,99.6v.24c.16-.08.16-.16,0-.24ZM2.24,103.44v-.36s-.36-.36-.36-.36h-.6s0,.72,0,.72h.96ZM119.6,103.68v-.48h-.24v.48h.24ZM4.28,108v.24c.16-.08.16-.16,0-.24ZM116.12,109.68v.24c.16-.08.16-.16,0-.24ZM7.04,111.6h-.48v.48h.48v-.48ZM10.88,115.68h-.6s-.25.23-.25.23l-.11.97c.61-.26,1.11-.44.96-1.2ZM39.08,117.6v.24c.16-.08.16-.16,0-.24ZM60.8,118.32c.16-.3-.38-.84-.48-.72-.16.3.38.84.48.72ZM78.32,117.6c-.34-.38-1.09,1.06-.96,1.2.52.21,1.12-1.02.96-1.2ZM43.88,117.84v.24c.16-.08.16-.16,0-.24ZM55.52,118.32v-.48h-.24v.48h.24ZM69.44,117.84h-.48v.72h.48v-.72ZM90.32,117.84h-.96s.26.7.26.7l.7.02v-.72ZM58.4,118.56l-1.44-.48c.04.24-.14.69.14.72.24.03,1.33.17,1.3-.24ZM101.84,118.08h-.48s.36.48.36.48l.12-.48ZM17.84,118.32c-.36-.36-1.02.72-.36.72.15,0,.5-.58.36-.72ZM22.76,118.32v.24c.16-.08.16-.16,0-.24ZM65.36,118.56h-.96s0,.48,0,.48h.6s.36-.48.36-.48ZM85.04,118.56h-1.2v.48h1.2v-.48ZM63.44,118.8h-.36s-.36.36-.36.36l.36.36h.36s0-.72,0-.72ZM104.72,119.28v-.48h-.24v.48h.24ZM32.96,119.52v-.48h-.24v.48h.24ZM48.2,119.04v.24c.16-.08.16-.16,0-.24ZM94.4,119.04h-.48s.36.48.36.48l.12-.48ZM81.8,119.28v.24c.16-.08.16-.16,0-.24ZM93.32,119.28v.24c.16-.08.16-.16,0-.24Z"/>
  <path d="M6.8,42.96l-.96-.36.92.88-.13,59.9-.78,1.01.96-.48.23,1.33,5.03,5.03-.45.6c1.51-.34,1.6.97,2.64,1.56-.23.25-.37.52-.73.25-.26-.19-.04-.8-.71-.61-.07.45.07.87.49,1.08.23.12,3.7.14,4.2.13,1.08-.02,2.04-.02,3.11,0,1.25.01,3.2-.19,4.32,0,.55.09.65.54,1.08.72.03-.47.36-.93.85-.97,2.19.39,4.48.19,6.73.23,1.04.02,2.45-.07,3.35,0,.98.09,1.73.75,2.82.43,2.13-.63,5.08-.38,7.5-.42.4,0,.77-.25,1.18-.24.51.02,1.04.46,1.58.48l-.12.48c.66-.24.89-.69,1.68-.74,1.66-.1,3.96.31,5.5.25.78-.03,1.24-.73,1.7.49l.71-.73c1.26.08,2.47-.28,3.56.46.69-.47,2.21-.41,3.19-.44,3.21-.07,6.57-.06,9.8-.02,1.47.02,3.45-.17,4.83,0,1.22.15.29.44,1.72.06.29-.08.58.14.86.11,1.01-.09,2.64-.54,3.16.56,1.27-1.46,3.67-.42,5.4-.96l.12.96c.57-1.62,2.07-.63,3.4-.56.44.02.87-.25,1.39-.17.38.06.65.49.97.49.28,0,.62-.43,1.19-.5,2.72-.33,4.93.8,7.41-.99.52-.37,2.72-2.5,2.98-2.91.12-.19,0-.54.08-.62.11-.13.66.08.9-.07.25-.16.93-1.6,1.14-1.86.26-.31,1.72-1.44,1.77-1.61.08-.3-.2-.64-.19-.93.07-1.21-.06-1.88-.06-2.89,0-.52.43-.82.43-.95,0-.15-.38-.37-.4-.71-.05-.95.57-2.44.67-3.17.03-.23-.4-.62-.46-1.15-.2-1.67.05-4.01.03-5.79,0-.63-.36-1.15.01-1.77l.94-.14-.86-.34c-.37-.54-.1-5.13-.09-6.15,0-2.54.03-5.14,0-7.67-.03-2.35-.38-4.56.11-6.85l.85-.11c-.24-.68-.83-1.16-.95-1.93-.15-.95.21-1.88.16-2.6s-.76-1.64-.37-2.51l.69-.64c-.77-1.07-.46-2.34-.49-3.6-.03-1.11-.19-2.73,0-3.84.13-.74,1.39-1.04.65-1.98-.15-.19-.7-.18-.66-.66-.17-.97.41-1.5.41-1.69,0-.11-.35-1.44-.4-2.16-.06-.85-.44-1.72.36-2.51l1.1,1.3v53.07s-.5,1.18-.5,1.18l.51.46-.14,7.34c-1.33,1.32-2.64,2.66-3.96,3.99-.33.33-.48.49-.82.82-.69.68-3.81,3.98-4.35,4.08l-8.18.02-.46-.51-1.18.5-77.85-.08c-.35-1.14-.84.05-.92.07-.4.09-1.66.05-2.14,0-1.75-.14-2.45-1.72-3.71-2.77l.48-.6c-.88.18-1.24-.49-1.93-.85v-.82c-.46-.09-.91-.21-1.31-.49-.28-.19-3.02-2.93-3.11-3.13-.38-.75-.14-3.74.13-4.67l-.51-.27c.23-2.78.17-5.58.24-8.36.09-3.68.02-7.36.03-11.06,0-2.14-.31-5.5-.02-7.46.1-.68.67-.47.73-.72v-.35s-.66-.35-.66-.35c-.09-3.44-.02-7.06-.04-10.59-.02-1.98-.18-3.95-.17-5.95,0-.76.41-1.56-.06-2.42l.36-.37,1.07.11-.12-.59-.86.14c-.49-.37-.61-2.77.25-2.9v-.36s-.67-.35-.67-.35l.18-4.32c.36-2.25-.26-4.81,0-6.99.06-.48.42-.85.42-.95,0-.19-.61-1.92-.61-2.64-.02-2.53-.07-5.89.04-8.36.1-2.31.23-4.75.18-7.25-.01-.53-.26-.98-.26-1.43,0-1.13,1.06-1.52.25-2.86.08-1.2,3.82-3.6,4.56-4.83l.96.38c.25-.92-.86-.55-.37-1.45.37-.67,1.43-.07,1.1-1.42.93.16,2.69-1.29,2.15-2.17l4.17-.42,1.83.9.12-.73c.86-.17,1.47.49,1.88.45.29-.03.6-.4,1.02-.44.63-.06,1.96.23,2.62.21,2.8-.09,4.72-.09,7.49-.02.29,0,1.03-.18,1.87-.18,5.68.03,11.32-.02,17.05-.02,2.23,0,4.47.02,6.7.02,1.87,0,12.29-.29,13.09.11.29.14.42.66.84.6l-.12-.72c.84-.15,1.7.14,2.48.16,4.64.12,9.66-.43,14.44-.37,3.8.05,7.79.21,11.52.2,1.67,0,3.38.13,5.01-.18l9.04,8.69.23.49v11.75c0,1.6.24,9.97-.12,10.69-.13.26-.56.4-.6.72l.73.13-.13,5.63-1.21-.95c-.58-.94.05-2.61.05-3.53,0-4.04-.6-9.24-.17-13.17.09-.79.74-1.1.75-1.88l-.73-.53c.26-.7,0-1.23-.03-1.88-.06-1.63.28-4.28-.04-5.72-.08-.35-.31-.64-.55-.89l-7.73-7.63-71.49-.03c-1.1-.65-1.04-.1-1.89,0-2.96.34-6.58-.3-9.63,0h-6.95S6.8,14.76,6.8,14.76v28.2ZM23.84,5.76h-.36s-.36.72-.36.72h.36s.36-.72.36-.72ZM69.92,6c-.34-.15-1.3.08-.96.24s1.3-.08.96-.24ZM103.28,6h-.72v.48h.72v-.48ZM36.44,6.24v.24c.16-.08.16-.16,0-.24ZM113.84,33.6c.09.12.63-.42.48-.72-.09-.12-.63.42-.48.72ZM6.56,37.68h-.72s0,.96,0,.96h.48s.24-.96.24-.96ZM6.32,45.84l-.12-.72-.36.36v.36s.48,0,.48,0ZM114.32,53.04c.15-.34-.08-1.3-.24-.96s.08,1.3.24.96ZM109.04,111.12v-.48h-.24v.48h.24ZM18.8,113.76h-.48v.24h.48v-.24ZM68.96,113.76h-.48v.24h.48v-.24ZM54.44,114.24v.24c.16-.08.16-.16,0-.24Z"/>
</svg>